<?xml version="1.0" encoding="UTF-8"?>
<!DOCTYPE svg PUBLIC "-//W3C//DTD SVG 1.1//EN" "http://www.w3.org/Graphics/SVG/1.1/DTD/svg11.dtd">
<svg xmlns="http://www.w3.org/2000/svg" version="1.1" width="225px" height="225px" style="shape-rendering:geometricPrecision; text-rendering:geometricPrecision; image-rendering:optimizeQuality; fill-rule:evenodd; clip-rule:evenodd" xmlns:xlink="http://www.w3.org/1999/xlink">
<g><path style="opacity:1" fill="#fefefe" d="M -0.5,-0.5 C 74.5,-0.5 149.5,-0.5 224.5,-0.5C 224.5,74.5 224.5,149.5 224.5,224.5C 149.5,224.5 74.5,224.5 -0.5,224.5C -0.5,149.5 -0.5,74.5 -0.5,-0.5 Z"/></g>
<g><path style="opacity:1" fill="#38374f" d="M 95.5,47.5 C 98.9619,46.5184 102.629,46.185 106.5,46.5C 105.737,47.2679 104.737,47.7679 103.5,48C 108.019,48.1753 112.353,48.6753 116.5,49.5C 106.764,49.3079 97.0978,49.9745 87.5,51.5C 90.8683,49.941 94.5349,49.1077 98.5,49C 98.8333,48.6667 99.1667,48.3333 99.5,48C 98.2068,47.51 96.8734,47.3433 95.5,47.5 Z"/></g>
<g><path style="opacity:1" fill="#353362" d="M 106.5,46.5 C 130.932,45.3527 153.932,50.5194 175.5,62C 203.758,78.0206 212.925,101.521 203,132.5C 202.059,134.727 200.892,136.727 199.5,138.5C 200.449,135.792 200.449,133.126 199.5,130.5C 196.829,132.466 194.829,134.8 193.5,137.5C 194.11,136.609 194.443,135.609 194.5,134.5C 195.75,132.068 197.25,129.734 199,127.5C 200.136,124.904 200.969,122.237 201.5,119.5C 203.104,115.1 203.771,110.434 203.5,105.5C 193.775,107.191 184.442,109.858 175.5,113.5C 175.167,113.5 174.833,113.5 174.5,113.5C 171.843,113.935 169.509,114.935 167.5,116.5C 166.711,116.783 166.044,117.283 165.5,118C 167.622,124.132 165.622,128.299 159.5,130.5C 157.833,130.5 156.167,130.5 154.5,130.5C 154.85,133.453 153.85,135.787 151.5,137.5C 149.973,137.427 148.973,138.094 148.5,139.5C 143.871,140.82 139.871,143.32 136.5,147C 133.833,147.333 131.167,147.667 128.5,148C 127.944,148.383 127.611,148.883 127.5,149.5C 122.719,149.652 118.052,148.986 113.5,147.5C 112.584,147.543 111.917,147.876 111.5,148.5C 110.791,149.404 109.791,149.737 108.5,149.5C 105.098,149.658 101.764,149.324 98.5,148.5C 97.1667,147.833 96.1667,146.833 95.5,145.5C 92.997,144.629 90.3303,143.963 87.5,143.5C 83.5837,140.682 79.2504,138.516 74.5,137C 72.5864,135.587 71.2531,133.753 70.5,131.5C 62.0639,130.063 58.0639,125.063 58.5,116.5C 58.0472,115.542 57.3805,114.708 56.5,114C 53.6473,112.57 50.6473,111.737 47.5,111.5C 45.3155,109.415 42.6489,108.415 39.5,108.5C 36.7938,108.425 34.1272,108.092 31.5,107.5C 27.9892,106.336 24.3225,105.336 20.5,104.5C 20.5,107.833 20.5,111.167 20.5,114.5C 19.6773,111.023 19.1773,107.356 19,103.5C 18.8019,105.382 18.3019,107.048 17.5,108.5C 18.1504,91.3657 25.4837,77.8657 39.5,68C 56.185,55.9365 74.8517,49.1031 95.5,47.5C 96.8734,47.3433 98.2068,47.51 99.5,48C 99.1667,48.3333 98.8333,48.6667 98.5,49C 94.5349,49.1077 90.8683,49.941 87.5,51.5C 85.2143,51.595 83.2143,52.2616 81.5,53.5C 76.4503,54.3475 71.4503,55.5142 66.5,57C 60.849,58.8165 55.5156,61.3165 50.5,64.5C 48.9731,64.427 47.9731,65.0937 47.5,66.5C 45.3129,67.0485 44.6462,68.2152 45.5,70C 54.5985,73.441 63.9318,75.941 73.5,77.5C 75.9522,77.4609 77.9522,76.7943 79.5,75.5C 80.8333,75.5 82.1667,75.5 83.5,75.5C 86.1873,75.6641 88.854,75.4974 91.5,75C 92.4158,74.7216 93.0825,74.2216 93.5,73.5C 96.9373,70.448 100.937,68.448 105.5,67.5C 110.772,66.5998 116.105,66.2665 121.5,66.5C 123.527,66.3379 125.527,66.5045 127.5,67C 131.036,68.808 134.702,70.308 138.5,71.5C 141.084,73.4725 144.084,74.4725 147.5,74.5C 153.979,75.4907 160.646,75.824 167.5,75.5C 170.152,75.5905 172.485,74.9238 174.5,73.5C 182.1,71.9395 182.433,69.6061 175.5,66.5C 164.454,59.4041 152.454,54.7374 139.5,52.5C 136.829,50.8819 133.829,50.2153 130.5,50.5C 126.833,50.5 123.167,50.5 119.5,50.5C 118.791,49.596 117.791,49.2627 116.5,49.5C 112.353,48.6753 108.019,48.1753 103.5,48C 104.737,47.7679 105.737,47.2679 106.5,46.5 Z"/></g>
<g><path style="opacity:1" fill="#fafafa" d="M 107.5,69.5 C 112.511,69.3341 117.511,69.5007 122.5,70C 130.376,72.0698 138.043,74.7365 145.5,78C 159.336,80.8882 172.502,79.0549 185,72.5C 194.043,80.3449 199.877,90.0115 202.5,101.5C 189.035,104.827 175.868,109.16 163,114.5C 152.828,105.661 142.662,96.8277 132.5,88C 128.411,84.9053 124.077,82.2386 119.5,80C 116.833,79.3333 114.167,79.3333 111.5,80C 105.556,83.6112 99.8893,87.6112 94.5,92C 89.8311,94.3146 85.4978,93.9813 81.5,91C 88.291,81.3586 96.9576,74.192 107.5,69.5 Z"/></g>
<g><path style="opacity:1" fill="#4d4037" d="M 171.5,73.5 C 172.5,73.5 173.5,73.5 174.5,73.5C 172.485,74.9238 170.152,75.5905 167.5,75.5C 168.671,74.6554 170.005,73.9887 171.5,73.5 Z"/></g>
<g><path style="opacity:1" fill="#f9fafa" d="M 39.5,71.5 C 48.3116,74.8255 57.3116,77.6588 66.5,80C 73.6011,80.5803 80.6011,80.247 87.5,79C 85.0374,82.4646 82.2041,85.6312 79,88.5C 77.729,92.1661 78.8956,94.6661 82.5,96C 86.1667,96.6667 89.8333,96.6667 93.5,96C 99.5,92 105.5,88 111.5,84C 114.5,83.3333 117.5,83.3333 120.5,84C 135.129,95.238 149.296,107.071 163,119.5C 163.937,124.607 161.771,127.274 156.5,127.5C 155.062,127.281 153.729,126.781 152.5,126C 148.28,121.277 143.613,117.11 138.5,113.5C 137.479,114.002 137.312,114.668 138,115.5C 142.333,119.833 146.667,124.167 151,128.5C 152.271,132.166 151.104,134.666 147.5,136C 145.098,136.814 142.765,136.647 140.5,135.5C 137.457,131.456 133.791,128.123 129.5,125.5C 128.479,126.002 128.312,126.668 129,127.5C 132.389,131.382 135.556,135.382 138.5,139.5C 137.181,143.327 134.514,144.827 130.5,144C 127.276,140.273 123.609,137.106 119.5,134.5C 118.479,135.002 118.312,135.668 119,136.5C 121.885,139.048 124.385,141.882 126.5,145C 123.571,147.98 120.237,148.313 116.5,146C 117.656,136.666 113.656,131.166 104.5,129.5C 104,120.847 99.3336,117.014 90.5,118C 86.1835,114.449 81.3501,113.615 76,115.5C 71.493,112.043 66.8263,111.709 62,114.5C 49.1372,108.268 35.6372,103.935 21.5,101.5C 21.7004,96.3992 23.2004,91.7326 26,87.5C 29.9594,81.7075 34.4594,76.3742 39.5,71.5 Z"/></g>
<g><path style="opacity:1" fill="#e1bf35" d="M 175.5,66.5 C 182.433,69.6061 182.1,71.9395 174.5,73.5C 173.5,73.5 172.5,73.5 171.5,73.5C 171.343,72.1266 171.51,70.7932 172,69.5C 176.974,71.4944 178.141,70.4944 175.5,66.5 Z"/></g>
<g><path style="opacity:1" fill="#d1b440" d="M 50.5,65.5 C 49.962,67.1172 49.6287,68.7839 49.5,70.5C 55.433,71.8963 61.433,73.063 67.5,74C 66.8333,74.3333 66.1667,74.6667 65.5,75C 70.1548,75.4992 74.8215,75.6658 79.5,75.5C 77.9522,76.7943 75.9522,77.4609 73.5,77.5C 63.9318,75.941 54.5985,73.441 45.5,70C 44.6462,68.2152 45.3129,67.0485 47.5,66.5C 48.609,66.4431 49.609,66.1098 50.5,65.5 Z"/></g>
<g><path style="opacity:1" fill="#755e34" d="M 50.5,64.5 C 50.5,64.8333 50.5,65.1667 50.5,65.5C 49.609,66.1098 48.609,66.4431 47.5,66.5C 47.9731,65.0937 48.9731,64.427 50.5,64.5 Z"/></g>
<g><path style="opacity:1" fill="#facf11" d="M 119.5,50.5 C 123.167,50.5 126.833,50.5 130.5,50.5C 133.273,51.6572 136.273,52.3239 139.5,52.5C 152.454,54.7374 164.454,59.4041 175.5,66.5C 178.141,70.4944 176.974,71.4944 172,69.5C 171.51,70.7932 171.343,72.1266 171.5,73.5C 170.005,73.9887 168.671,74.6554 167.5,75.5C 160.646,75.824 153.979,75.4907 147.5,74.5C 144.855,72.6896 141.855,71.6896 138.5,71.5C 134.702,70.308 131.036,68.808 127.5,67C 125.527,66.5045 123.527,66.3379 121.5,66.5C 116.684,65.3503 111.684,65.1837 106.5,66C 105.944,66.3826 105.611,66.8826 105.5,67.5C 100.937,68.448 96.9373,70.448 93.5,73.5C 89.8776,73.322 86.5443,73.9886 83.5,75.5C 82.1667,75.5 80.8333,75.5 79.5,75.5C 74.8215,75.6658 70.1548,75.4992 65.5,75C 66.1667,74.6667 66.8333,74.3333 67.5,74C 61.433,73.063 55.433,71.8963 49.5,70.5C 49.6287,68.7839 49.962,67.1172 50.5,65.5C 50.5,65.1667 50.5,64.8333 50.5,64.5C 55.5156,61.3165 60.849,58.8165 66.5,57C 71.4503,55.5142 76.4503,54.3475 81.5,53.5C 94.0547,51.1832 106.721,50.1832 119.5,50.5 Z"/></g>
<g><path style="opacity:1" fill="#524539" d="M 93.5,73.5 C 93.0825,74.2216 92.4158,74.7216 91.5,75C 88.854,75.4974 86.1873,75.6641 83.5,75.5C 86.5443,73.9886 89.8776,73.322 93.5,73.5 Z"/></g>
<g><path style="opacity:1" fill="#b89a48" d="M 138.5,71.5 C 141.855,71.6896 144.855,72.6896 147.5,74.5C 144.084,74.4725 141.084,73.4725 138.5,71.5 Z"/></g>
<g><path style="opacity:1" fill="#887a3c" d="M 121.5,66.5 C 116.105,66.2665 110.772,66.5998 105.5,67.5C 105.611,66.8826 105.944,66.3826 106.5,66C 111.684,65.1837 116.684,65.3503 121.5,66.5 Z"/></g>
<g><path style="opacity:1" fill="#b5a04a" d="M 116.5,49.5 C 117.791,49.2627 118.791,49.596 119.5,50.5C 106.721,50.1832 94.0547,51.1832 81.5,53.5C 83.2143,52.2616 85.2143,51.595 87.5,51.5C 97.0978,49.9745 106.764,49.3079 116.5,49.5 Z"/></g>
<g><path style="opacity:1" fill="#5f4f33" d="M 130.5,50.5 C 133.829,50.2153 136.829,50.8819 139.5,52.5C 136.273,52.3239 133.273,51.6572 130.5,50.5 Z"/></g>
<g><path style="opacity:1" fill="#dfc13e" d="M 31.5,107.5 C 28.4552,107.492 25.4552,107.159 22.5,106.5C 22.5,110.833 22.5,115.167 22.5,119.5C 21.8333,117.833 21.1667,116.167 20.5,114.5C 20.5,111.167 20.5,107.833 20.5,104.5C 24.3225,105.336 27.9892,106.336 31.5,107.5 Z"/></g>
<g><path style="opacity:1" fill="#e8c532" d="M 201.5,119.5 C 201.768,116.881 201.435,114.381 200.5,112C 196.486,111.61 192.486,111.11 188.5,110.5C 184.376,112.395 180.042,113.395 175.5,113.5C 184.442,109.858 193.775,107.191 203.5,105.5C 203.771,110.434 203.104,115.1 201.5,119.5 Z"/></g>
<g><path style="opacity:1" fill="#4e4635" d="M 39.5,108.5 C 42.6489,108.415 45.3155,109.415 47.5,111.5C 44.3511,111.585 41.6845,110.585 39.5,108.5 Z"/></g>
<g><path style="opacity:1" fill="#fbd00f" d="M 31.5,107.5 C 34.1272,108.092 36.7938,108.425 39.5,108.5C 41.6845,110.585 44.3511,111.585 47.5,111.5C 50.9299,113.613 54.5965,115.28 58.5,116.5C 58.0639,125.063 62.0639,130.063 70.5,131.5C 71.2531,133.753 72.5864,135.587 74.5,137C 79.2504,138.516 83.5837,140.682 87.5,143.5C 87.6107,144.117 87.944,144.617 88.5,145C 90.8098,145.497 93.1432,145.663 95.5,145.5C 96.1667,146.833 97.1667,147.833 98.5,148.5C 99.8984,150.533 101.898,151.533 104.5,151.5C 106.355,151.66 107.688,150.993 108.5,149.5C 109.791,149.737 110.791,149.404 111.5,148.5C 114.835,149.852 118.335,150.519 122,150.5C 124.033,150.494 125.866,150.161 127.5,149.5C 127.611,148.883 127.944,148.383 128.5,148C 131.167,147.667 133.833,147.333 136.5,147C 139.871,143.32 143.871,140.82 148.5,139.5C 150.027,139.573 151.027,138.906 151.5,137.5C 154.776,136.878 156.109,134.878 155.5,131.5C 157.099,131.768 158.432,131.434 159.5,130.5C 165.622,128.299 167.622,124.132 165.5,118C 166.044,117.283 166.711,116.783 167.5,116.5C 170.491,116.834 172.824,115.834 174.5,113.5C 174.833,113.5 175.167,113.5 175.5,113.5C 180.042,113.395 184.376,112.395 188.5,110.5C 192.486,111.11 196.486,111.61 200.5,112C 201.435,114.381 201.768,116.881 201.5,119.5C 200.969,122.237 200.136,124.904 199,127.5C 197.25,129.734 195.75,132.068 194.5,134.5C 193.167,135.167 192.167,136.167 191.5,137.5C 191.5,137.833 191.5,138.167 191.5,138.5C 188.236,140.094 185.569,142.427 183.5,145.5C 180.079,146.539 177.412,148.539 175.5,151.5C 175.167,151.5 174.833,151.5 174.5,151.5C 172.326,151.75 170.659,152.75 169.5,154.5C 163.222,156.475 157.222,158.808 151.5,161.5C 144.995,162.6 138.662,163.933 132.5,165.5C 132.167,165.5 131.833,165.5 131.5,165.5C 115.413,165.943 99.4127,165.276 83.5,163.5C 82.1667,163.5 80.8333,163.5 79.5,163.5C 77.1617,161.96 74.4951,161.294 71.5,161.5C 69.7857,160.262 67.7857,159.595 65.5,159.5C 61.5388,157.519 57.5388,155.519 53.5,153.5C 47.228,149.892 41.228,145.892 35.5,141.5C 34.9202,139.251 33.5869,137.585 31.5,136.5C 29.1667,133.167 26.8333,129.833 24.5,126.5C 24.1218,124.079 23.4552,121.746 22.5,119.5C 22.5,115.167 22.5,110.833 22.5,106.5C 25.4552,107.159 28.4552,107.492 31.5,107.5 Z"/></g>
<g><path style="opacity:1" fill="#54463f" d="M 47.5,111.5 C 50.6473,111.737 53.6473,112.57 56.5,114C 57.3805,114.708 58.0472,115.542 58.5,116.5C 54.5965,115.28 50.9299,113.613 47.5,111.5 Z"/></g>
<g><path style="opacity:1" fill="#bda541" d="M 174.5,113.5 C 172.824,115.834 170.491,116.834 167.5,116.5C 169.509,114.935 171.843,113.935 174.5,113.5 Z"/></g>
<g><path style="opacity:1" fill="#f4f4f5" d="M 66.5,115.5 C 71.118,114.949 73.9513,116.949 75,121.5C 80.9541,115.828 85.9541,116.495 90,123.5C 94.325,120.431 97.9917,121.098 101,125.5C 101.43,128.192 101.263,130.859 100.5,133.5C 110.741,131.898 114.241,135.898 111,145.5C 103.488,150.333 98.655,148.333 96.5,139.5C 90.3165,143.24 86.3165,141.573 84.5,134.5C 81.8971,135.562 79.2305,135.728 76.5,135C 74.3538,132.205 73.1872,129.039 73,125.5C 67.7918,128.816 64.2918,127.483 62.5,121.5C 62.8662,118.744 64.1995,116.744 66.5,115.5 Z"/></g>
<g><path style="opacity:1" fill="#433a4c" d="M 20.5,114.5 C 21.1667,116.167 21.8333,117.833 22.5,119.5C 23.4552,121.746 24.1218,124.079 24.5,126.5C 23.8826,126.611 23.3826,126.944 23,127.5C 21.1371,123.367 20.3037,119.033 20.5,114.5 Z"/></g>
<g><path style="opacity:1" fill="#bda74a" d="M 159.5,130.5 C 158.432,131.434 157.099,131.768 155.5,131.5C 156.109,134.878 154.776,136.878 151.5,137.5C 153.85,135.787 154.85,133.453 154.5,130.5C 156.167,130.5 157.833,130.5 159.5,130.5 Z"/></g>
<g><path style="opacity:1" fill="#42432b" d="M 194.5,134.5 C 194.443,135.609 194.11,136.609 193.5,137.5C 192.833,137.5 192.167,137.5 191.5,137.5C 192.167,136.167 193.167,135.167 194.5,134.5 Z"/></g>
<g><path style="opacity:1" fill="#574a37" d="M 31.5,136.5 C 33.5869,137.585 34.9202,139.251 35.5,141.5C 33.1073,140.647 31.774,138.981 31.5,136.5 Z"/></g>
<g><path style="opacity:1" fill="#7d6d3b" d="M 151.5,137.5 C 151.027,138.906 150.027,139.573 148.5,139.5C 148.973,138.094 149.973,137.427 151.5,137.5 Z"/></g>
<g><path style="opacity:1" fill="#504431" d="M 191.5,138.5 C 189.431,141.573 186.764,143.906 183.5,145.5C 185.569,142.427 188.236,140.094 191.5,138.5 Z"/></g>
<g><path style="opacity:1" fill="#8e7b41" d="M 87.5,143.5 C 90.3303,143.963 92.997,144.629 95.5,145.5C 93.1432,145.663 90.8098,145.497 88.5,145C 87.944,144.617 87.6107,144.117 87.5,143.5 Z"/></g>
<g><path style="opacity:1" fill="#4e3c38" d="M 111.5,148.5 C 111.917,147.876 112.584,147.543 113.5,147.5C 118.052,148.986 122.719,149.652 127.5,149.5C 125.866,150.161 124.033,150.494 122,150.5C 118.335,150.519 114.835,149.852 111.5,148.5 Z"/></g>
<g><path style="opacity:1" fill="#2e3172" d="M 199.5,138.5 C 194.047,148.454 186.38,156.287 176.5,162C 144.73,177.971 111.397,181.971 76.5,174C 74.5087,173.626 72.842,172.793 71.5,171.5C 70.2627,169.903 68.596,168.737 66.5,168C 66.8333,167.667 67.1667,167.333 67.5,167C 66.062,166.781 64.7287,166.281 63.5,165.5C 64.5,165.167 65.5,164.833 66.5,164.5C 70.6747,166.064 75.008,166.731 79.5,166.5C 79.5,167.5 79.5,168.5 79.5,169.5C 98.1913,170.002 116.858,170.002 135.5,169.5C 135.527,167.801 136.194,166.467 137.5,165.5C 142.707,165.702 147.373,164.368 151.5,161.5C 156.417,161.2 161.084,160.034 165.5,158C 167.093,157.051 168.426,155.885 169.5,154.5C 171.848,154.408 173.514,153.408 174.5,151.5C 174.833,151.5 175.167,151.5 175.5,151.5C 177.372,150.489 179.372,149.655 181.5,149C 182.823,148.184 183.489,147.017 183.5,145.5C 186.764,143.906 189.431,141.573 191.5,138.5C 191.5,138.167 191.5,137.833 191.5,137.5C 192.167,137.5 192.833,137.5 193.5,137.5C 194.829,134.8 196.829,132.466 199.5,130.5C 200.449,133.126 200.449,135.792 199.5,138.5 Z"/></g>
<g><path style="opacity:1" fill="#433d40" d="M 98.5,148.5 C 101.764,149.324 105.098,149.658 108.5,149.5C 107.688,150.993 106.355,151.66 104.5,151.5C 101.898,151.533 99.8984,150.533 98.5,148.5 Z"/></g>
<g><path style="opacity:1" fill="#3e3947" d="M 183.5,145.5 C 183.489,147.017 182.823,148.184 181.5,149C 179.372,149.655 177.372,150.489 175.5,151.5C 177.412,148.539 180.079,146.539 183.5,145.5 Z"/></g>
<g><path style="opacity:1" fill="#534540" d="M 174.5,151.5 C 173.514,153.408 171.848,154.408 169.5,154.5C 170.659,152.75 172.326,151.75 174.5,151.5 Z"/></g>
<g><path style="opacity:1" fill="#454046" d="M 53.5,153.5 C 57.5388,155.519 61.5388,157.519 65.5,159.5C 60.1711,159.86 56.1711,157.86 53.5,153.5 Z"/></g>
<g><path style="opacity:1" fill="#473d47" d="M 169.5,154.5 C 168.426,155.885 167.093,157.051 165.5,158C 161.084,160.034 156.417,161.2 151.5,161.5C 157.222,158.808 163.222,156.475 169.5,154.5 Z"/></g>
<g><path style="opacity:1" fill="#6e5f2f" d="M 71.5,161.5 C 74.4951,161.294 77.1617,161.96 79.5,163.5C 76.5718,163.435 73.9052,162.768 71.5,161.5 Z"/></g>
<g><path style="opacity:1" fill="#30326d" d="M 20.5,114.5 C 20.3037,119.033 21.1371,123.367 23,127.5C 23.3826,126.944 23.8826,126.611 24.5,126.5C 26.8333,129.833 29.1667,133.167 31.5,136.5C 31.774,138.981 33.1073,140.647 35.5,141.5C 41.228,145.892 47.228,149.892 53.5,153.5C 56.1711,157.86 60.1711,159.86 65.5,159.5C 67.7857,159.595 69.7857,160.262 71.5,161.5C 73.9052,162.768 76.5718,163.435 79.5,163.5C 81.8383,165.04 84.5049,165.706 87.5,165.5C 96.2958,166.525 105.129,167.191 114,167.5C 120.067,167.61 125.9,166.943 131.5,165.5C 131.833,165.5 132.167,165.5 132.5,165.5C 134.167,165.5 135.833,165.5 137.5,165.5C 136.194,166.467 135.527,167.801 135.5,169.5C 116.858,170.002 98.1913,170.002 79.5,169.5C 79.5,168.5 79.5,167.5 79.5,166.5C 75.008,166.731 70.6747,166.064 66.5,164.5C 65.5,164.833 64.5,165.167 63.5,165.5C 64.7287,166.281 66.062,166.781 67.5,167C 67.1667,167.333 66.8333,167.667 66.5,168C 68.596,168.737 70.2627,169.903 71.5,171.5C 47.2155,166.033 30.0489,152.033 20,129.5C 17.9219,122.655 17.0886,115.655 17.5,108.5C 18.3019,107.048 18.8019,105.382 19,103.5C 19.1773,107.356 19.6773,111.023 20.5,114.5 Z"/></g>
<g><path style="opacity:1" fill="#574d37" d="M 79.5,163.5 C 80.8333,163.5 82.1667,163.5 83.5,163.5C 84.8333,164.167 86.1667,164.833 87.5,165.5C 84.5049,165.706 81.8383,165.04 79.5,163.5 Z"/></g>
<g><path style="opacity:1" fill="#554c46" d="M 151.5,161.5 C 147.373,164.368 142.707,165.702 137.5,165.5C 135.833,165.5 134.167,165.5 132.5,165.5C 138.662,163.933 144.995,162.6 151.5,161.5 Z"/></g>
<g><path style="opacity:1" fill="#c9ad42" d="M 83.5,163.5 C 99.4127,165.276 115.413,165.943 131.5,165.5C 125.9,166.943 120.067,167.61 114,167.5C 105.129,167.191 96.2958,166.525 87.5,165.5C 86.1667,164.833 84.8333,164.167 83.5,163.5 Z"/></g>
</svg>
