<?xml version="1.0" encoding="utf-8"?>
<!DOCTYPE svg PUBLIC "-//W3C//DTD SVG 1.0//EN" "http://www.w3.org/TR/2001/REC-SVG-20010904/DTD/svg10.dtd">
<svg version="1.0" xmlns="http://www.w3.org/2000/svg" width="350px" height="80px" viewBox="0 0 350 80" preserveAspectRatio="xMidYMid meet">
 <g fill="#fdfdfd">
  <path d="M0 40 l0 -40 175 0 175 0 0 40 0 40 -175 0 -175 0 0 -40z m39.35 30 c1.75 -1.05 2.80 -2.85 5.20 -8.85 1.90 -4.85 2.15 -5.15 4.30 -5.15 1.50 0 2.45 0.75 8.45 6.60 3.75 3.65 7.40 7.05 8.10 7.50 1.20 0.80 2.90 0.90 16.80 0.90 l15.40 0 1.75 -1.75 c1.45 -1.45 1.70 -2 1.45 -3.15 -0.30 -1.20 -4.10 -10.55 -10.10 -25.10 -1.20 -2.85 -2.20 -5.60 -2.20 -6.10 0 -0.50 -0.20 -0.90 -0.40 -0.90 -0.40 0 -0.90 -1.40 -1.90 -5 -0.20 -0.65 -0.60 -1.45 -0.90 -1.80 -0.35 -0.30 -1.05 -1.90 -1.55 -3.50 -0.55 -1.65 -1.10 -3.05 -1.25 -3.20 -0.50 -0.50 -2.50 -5.80 -2.50 -6.65 0 -0.45 -0.20 -0.85 -0.50 -0.85 -0.25 0 -0.50 -0.35 -0.50 -0.75 0 -0.45 -0.55 -1 -1.20 -1.25 -0.65 -0.25 -1.30 -0.75 -1.40 -1.10 -0.20 -0.50 -3.40 -0.70 -15.35 -0.80 -20.50 -0.20 -18.65 -1.25 -24.95 14.30 l-3.50 8.60 9.90 0 c5.60 0 10.55 -0.20 11.30 -0.50 0.75 -0.30 2.20 -1.40 3.20 -2.50 1.85 -1.95 3.85 -2.60 5.30 -1.60 0.80 0.55 1.70 2.40 1.70 3.55 0 0.60 0.25 1.05 0.50 1.05 0.30 0 0.50 0.55 0.50 1.25 0 0.70 0.25 1.25 0.50 1.25 0.30 0 0.50 0.55 0.50 1.20 0 0.70 0.30 1.55 0.65 1.90 0.35 0.35 1.70 3.20 3 6.35 1.70 4.10 2.35 6.35 2.35 8.10 0 2.45 0 2.45 -1.65 2.45 -1.35 0 -2.20 -0.55 -4.85 -3.25 -1.75 -1.80 -3.50 -3.25 -3.85 -3.25 -0.35 0 -0.65 -0.20 -0.65 -0.45 0 -0.85 -3.30 -1.05 -16.85 -1.10 -14.60 0 -15.20 0.10 -17.70 2.70 -1.30 1.35 -5.10 9.60 -9.50 20.75 l-0.45 1.10 10.65 0 c9.65 0 10.75 -0.10 12.20 -1z m82.15 -32.60 l2.25 -3.40 9.50 0 c5.20 0 11.35 -0.15 13.60 -0.30 l4.10 -0.35 2.30 3.60 c2.55 3.95 2.90 4.20 5.25 3.95 l1.55 -0.15 -3.55 -5.75 c-2 -3.15 -4.40 -7 -5.40 -8.50 -1 -1.50 -2.30 -3.55 -2.85 -4.50 -7.85 -12.65 -7.30 -12 -10.75 -12 l-2.90 0 -2.95 4.50 c-1.60 2.45 -4.45 6.95 -6.40 10 -1.90 3 -5 7.85 -6.85 10.75 -1.90 2.90 -3.40 5.40 -3.40 5.55 0 0.15 0.95 0.20 2.15 0.10 2 -0.15 2.20 -0.35 4.35 -3.50z m96.50 1.60 l0 -2 -15.50 0 -15.50 0 0 -1.70 c0 -2 0.40 -3.30 1.10 -3.30 0.25 0 1.95 -1.05 3.80 -2.35 1.85 -1.30 8.20 -5.60 14.10 -9.55 9.40 -6.35 10.75 -7.40 10.75 -8.55 l0 -1.30 -19.75 -0.15 c-10.85 -0.05 -20.25 0 -20.85 0.15 -0.90 0.20 -1.15 0.60 -1.15 2 l0 1.75 14.65 0.10 14.60 0.15 0.15 1.85 0.15 1.80 -7.65 5.15 c-4.20 2.85 -10.95 7.35 -15 10.10 -6.75 4.45 -7.40 5.05 -7.40 6.40 l0 1.45 21.75 0 21.75 0 0 -2z m57.40 1.40 c0.85 -0.85 0.75 -2.75 -0.20 -3.10 -0.45 -0.15 -7 -0.30 -14.60 -0.30 -7.60 0 -14.35 -0.15 -14.95 -0.30 -0.95 -0.25 -1.15 -0.65 -1.15 -2.20 l0 -1.90 10.30 -6.95 c5.65 -3.80 12.30 -8.20 14.75 -9.85 3.90 -2.55 4.45 -3.10 4.45 -4.35 l0 -1.45 -21 0 -21 0 0 1.70 c0 1.10 0.30 1.80 0.80 2 0.45 0.15 6.60 0.30 13.70 0.30 7.10 0 13.25 0.15 13.70 0.30 0.55 0.20 0.80 0.95 0.80 2.25 l0 1.90 -8.85 5.90 c-4.90 3.20 -9 6 -9.15 6.15 -0.15 0.15 -2.80 1.90 -5.85 3.95 -5 3.30 -5.65 3.85 -5.65 5.10 l0 1.45 21.65 0 c16.15 0 21.80 -0.15 22.25 -0.60z m52.85 -0.35 c2.25 -1 5.10 -3.95 5.55 -5.75 0.15 -0.60 0.20 -5.05 0.10 -9.85 -0.15 -8.25 -0.20 -8.80 -1.35 -10.30 -0.65 -0.85 -2.25 -2.15 -3.55 -2.85 l-2.40 -1.30 -14.90 0 c-13.95 0 -15 0.05 -17 1 -3 1.45 -4.60 3.25 -5.45 6.10 -0.90 3.05 -1.60 14.35 -0.95 14.80 0.30 0.20 0.75 1.25 1.10 2.35 0.30 1.10 1.35 2.75 2.25 3.70 3 2.85 4.05 3 20.10 3 12.95 0.05 14.70 -0.05 16.50 -0.90z"/>
  <path d="M142 29.55 c0 -0.35 -2.20 -0.55 -6.25 -0.55 l-6.25 0 0 -2 c0 -1.15 0.30 -2.55 0.70 -3.15 5.05 -8.15 5.25 -8.35 7.30 -8.35 2.20 0 2.10 -0.10 6.05 6.25 2.05 3.35 2.45 4.35 2.35 6 -0.15 1.90 -0.20 2 -2 2.15 -1.10 0.10 -1.90 -0.05 -1.90 -0.35z"/>
  <path d="M297.25 36.55 c-2.25 -0.95 -2.50 -1.80 -2.65 -10 -0.20 -8.75 0.20 -11.10 2.15 -11.95 2.05 -0.95 27.85 -0.80 29.70 0.10 2.20 1.15 2.55 2.65 2.55 11.05 l0 7.75 -1.45 1.60 -1.45 1.65 -13.95 0.10 c-7.65 0.05 -14.35 -0.10 -14.90 -0.30z"/>
 </g>
 <g fill="#a4bac3">
  <path d="M65 72.50 c0 -0.15 -0.55 -0.60 -1.20 -1 -2.40 -1.50 -15.30 -14.45 -15 -15.15 0.20 -0.55 2.20 -0.60 10.35 -0.45 l10.10 0.20 -4 -4.25 c-2.20 -2.30 -4.30 -4.25 -4.60 -4.30 -0.35 0 -0.65 -0.60 -0.65 -1.25 0 -0.95 0.20 -1.10 1.25 -0.90 0.70 0.10 1.25 0.45 1.25 0.75 0 0.30 0.15 0.35 0.35 0.15 0.20 -0.15 2 1.30 4.05 3.30 3.55 3.50 3.70 3.60 3.50 2.10 -0.20 -1.35 -0.05 -1.50 0.90 -1.30 1.10 0.20 1.70 1.75 1.70 4.40 0 0.65 0.20 1.20 0.45 1.20 0.25 0 0.85 1 1.35 2.25 0.45 1.25 1.05 2.25 1.25 2.25 0.25 0 0.45 0.55 0.45 1.25 0 0.70 0.25 1.25 0.55 1.25 0.90 0 0.30 7.85 -0.65 8.80 -0.55 0.55 -2.15 0.80 -6.05 0.90 -2.95 0.05 -5.35 0 -5.35 -0.20z"/>
  <path d="M126.50 71.50 c0 -0.30 2 -0.50 5 -0.50 3 0 5 0.20 5 0.50 0 0.30 -2 0.50 -5 0.50 -3 0 -5 -0.20 -5 -0.50z"/>
  <path d="M149 71.60 c0 -0.55 10.10 -1.20 11.25 -0.80 2 0.80 0.20 1.20 -5.25 1.20 -3.30 0 -6 -0.20 -6 -0.40z"/>
  <path d="M252.50 71.25 c-0.55 -0.65 0.10 -0.75 5.45 -0.75 5.05 0 6.05 0.10 6.05 0.75 0 0.60 -0.95 0.75 -5.45 0.75 -4.20 0 -5.55 -0.15 -6.05 -0.75z"/>
  <path d="M276 71.55 c0 -0.50 5.45 -0.95 8.45 -0.65 4.05 0.40 1.95 1.10 -3.20 1.10 -2.90 0 -5.25 -0.20 -5.25 -0.45z"/>
  <path d="M124.25 71 c-0.15 -0.25 -0.25 -2.85 -0.20 -5.75 l0.05 -5.25 1.45 0 c0.80 0 1.45 0.25 1.45 0.50 0 0.30 -0.35 0.50 -0.75 0.50 -0.40 0 -0.75 0.15 -0.80 0.40 -0.20 2.45 -0.05 8.10 0.25 9 0.25 0.80 0.15 1.10 -0.40 1.10 -0.40 0 -0.90 -0.20 -1.05 -0.50z"/>
  <path d="M183 66.35 c0 -3.25 0.20 -5.35 0.50 -5.35 0.30 0 0.50 1.25 0.50 2.80 l0 2.80 6.50 -0.15 c3.60 -0.10 6.50 -0.10 6.50 0.05 -0.05 1.10 -1.15 1.30 -5.60 1.05 -6.25 -0.40 -7.10 -0.15 -7.30 1.70 -0.10 0.85 -0.40 1.70 -0.65 2 -0.25 0.25 -0.45 -1.60 -0.45 -4.90z"/>
  <path d="M207.75 70.85 c-0.20 -0.50 -0.25 -1.05 -0.05 -1.20 0.50 -0.50 0.90 0.20 0.65 1.20 -0.20 0.85 -0.20 0.85 -0.60 0z"/>
  <path d="M241 64.60 c0 -2 0.20 -3.60 0.40 -3.60 0.50 0 0.50 6.30 0 6.80 -0.25 0.20 -0.40 -1.25 -0.40 -3.20z"/>
  <path d="M300.65 67.65 c-2.85 -0.10 -5.15 -0.40 -5.15 -0.65 0 -0.25 -0.35 -0.35 -0.75 -0.20 -0.40 0.20 -0.75 0.10 -0.75 -0.10 0 -0.25 2.80 -0.40 6.25 -0.35 3.45 0.05 6.25 0.25 6.25 0.40 0 0.15 0 0.50 0 0.75 0 0.30 -0.15 0.45 -0.35 0.40 -0.25 -0.05 -2.70 -0.20 -5.50 -0.25z"/>
  <path d="M207.80 65.75 c-0.20 -0.60 -0.05 -0.80 0.55 -0.65 0.90 0.15 1.05 1 0.25 1.30 -0.25 0.05 -0.60 -0.20 -0.80 -0.65z"/>
  <path d="M207 62.30 c0 -1.20 0.80 -2.15 1.30 -1.65 0.40 0.35 -0.35 2.85 -0.85 2.85 -0.25 0 -0.45 -0.55 -0.45 -1.20z"/>
  <path d="M136 60.50 c-0.60 -0.40 -0.45 -0.50 0.65 -0.50 0.75 0 1.35 0.25 1.35 0.50 0 0.65 -1 0.65 -2 0z"/>
  <path d="M171 60.50 c0 -0.25 0.70 -0.50 1.50 -0.50 0.85 0 1.50 0.25 1.50 0.50 0 0.30 -0.65 0.50 -1.50 0.50 -0.80 0 -1.50 -0.20 -1.50 -0.50z"/>
  <path d="M324.90 42.65 c-0.50 -0.10 -0.90 -0.50 -0.90 -0.90 0 -0.80 1.10 -1.25 3.05 -1.25 1.70 0 2 1.20 0.50 2 -1 0.50 -1.25 0.55 -2.65 0.15z"/>
  <path d="M229.95 42.40 c-0.60 -2.50 -0.20 -4.90 0.85 -4.90 1.50 0 1.60 4.60 0.10 4.90 -0.50 0.10 -0.90 0.10 -0.95 0z"/>
  <path d="M275 39 c0 -3.45 0.15 -3.80 1.70 -3.20 1 0.40 1.15 5.15 0.20 6.10 -1.40 1.40 -1.90 0.65 -1.90 -2.90z"/>
  <path d="M188 35.50 c0 -1.10 0.25 -2 0.55 -2 0.30 0 0.40 0.45 0.20 1.05 -0.25 0.70 -0.15 1 0.35 0.90 1.65 -0.20 2.40 0.10 2.40 1.05 0 0.80 -0.35 1 -1.75 1 -1.70 0 -1.75 -0.05 -1.75 -2z"/>
  <path d="M244 35 l0 -2.50 1.75 0 c1.80 0 2.35 0.65 1 1.20 -1.20 0.45 -0.85 1.20 0.75 1.55 2.85 0.65 1.60 2.25 -1.80 2.25 l-1.70 0 0 -2.50z"/>
  <path d="M123.50 35.30 c0 -1.50 0.20 -1.70 1.55 -2 0.85 -0.15 6.95 -0.30 13.50 -0.30 l11.95 0 0 1.55 c0 1 -0.20 1.40 -0.55 1.15 -0.35 -0.20 -6 -0.30 -12.65 -0.25 -9.90 0.10 -12.15 0.20 -12.60 0.80 -0.85 1.15 -1.20 0.90 -1.20 -0.95z"/>
  <path d="M287.50 34.30 c0 -0.45 -0.25 -0.80 -0.50 -0.80 -0.35 0 -0.50 -2.80 -0.45 -8 0.05 -4.40 0.25 -8 0.50 -8 0.25 0 0.45 -0.35 0.45 -0.75 0 -1.15 0.95 -0.90 1.25 0.40 0.15 0.60 0.20 4.80 0.15 9.30 -0.10 6.05 -0.30 8.25 -0.75 8.45 -0.35 0.10 -0.65 -0.15 -0.65 -0.60z"/>
  <path d="M129 27.50 c0 -2.45 0.05 -2.50 1.55 -2.50 1.10 0 1.40 0.20 1.10 0.65 -1.05 1.70 -0.65 1.85 5.65 1.85 4.05 0 6.20 0.20 6.20 0.55 0 0.25 0.25 0.35 0.50 0.20 0.30 -0.20 0.40 -0.75 0.25 -1.30 -0.20 -0.55 -0.10 -0.95 0.20 -0.95 0.30 0 0.55 0.90 0.55 2 l0 2 -8 0 -8 0 0 -2.50z"/>
  <path d="M82 18.95 c0 -0.35 -0.50 -1 -1.10 -1.50 -0.85 -0.80 -1.90 -0.95 -5.85 -1 -18.45 -0.10 -20.70 -0.20 -20.95 -0.85 -0.40 -1.20 -5.40 -6.10 -6.25 -6.10 -1.30 0 -1.05 -1.85 0.30 -2.15 1.55 -0.30 26.25 0.05 28.25 0.45 0.85 0.15 1.60 0.50 1.60 0.75 0 0.25 0.55 0.70 1.25 0.95 0.70 0.25 1.25 0.80 1.25 1.20 0 0.40 0.25 0.80 0.55 0.90 0.30 0.10 0.65 0.85 0.75 1.65 0.05 0.80 0.40 1.55 0.65 1.65 0.30 0.10 0.45 0.40 0.25 0.65 -0.15 0.25 -0.05 0.45 0.25 0.45 0.30 0 0.40 0.35 0.25 0.75 -0.20 0.40 -0.05 0.75 0.30 0.75 0.30 0 0.40 0.25 0.20 0.55 -0.15 0.30 0 0.75 0.35 1 0.50 0.30 0.30 0.45 -0.65 0.45 -0.80 0 -1.40 -0.25 -1.40 -0.55z"/>
  <path d="M258 18.05 c0 -0.25 0.35 -0.55 0.75 -0.75 1.15 -0.40 0.90 -1.25 -0.50 -1.60 -2.50 -0.60 -1.20 -2.20 1.80 -2.20 1.40 0 1.45 0.05 1.45 2.50 l0 2.50 -1.75 0 c-0.95 0 -1.75 -0.20 -1.75 -0.45z"/>
  <path d="M202.50 16.75 c0.35 -0.40 0.55 -0.75 0.45 -0.80 -0.10 0 -0.95 -0.10 -1.85 -0.20 -1.95 -0.15 -2.30 -0.45 -1.95 -1.50 0.20 -0.50 1 -0.75 2.35 -0.75 l2 0 0 2 c0 1.50 -0.20 2 -0.80 2 -0.70 0 -0.70 -0.15 -0.20 -0.75z"/>
  <path d="M173.50 12.30 c0 -2.45 0.20 -3.25 0.80 -3.50 1.55 -0.60 1.70 -0.25 1.70 3.20 0 3.40 -0.05 3.50 -1.25 3.50 -1.20 0 -1.25 -0.10 -1.25 -3.20z"/>
  <path d="M231.15 15.15 c-0.45 -0.15 -0.65 -1.35 -0.65 -3.45 0 -3.10 0.05 -3.20 1.25 -3.20 1.20 0 1.25 0.10 1.25 3.50 0 3.50 -0.20 3.85 -1.85 3.15z"/>
 </g>
 <g fill="#3b8bc6">
  <path d="M14.20 72.40 c-0.15 -0.25 1.30 -4.20 3.25 -8.80 6.40 -15.35 6.90 -16.20 10.20 -17.95 1.40 -0.70 3.60 -0.80 16.55 -0.85 12.95 -0.05 15.20 0.05 16.75 0.75 1 0.45 3.60 2.65 5.80 4.90 2.20 2.25 4.15 4.05 4.35 4.05 0.80 0 -4.60 -14.05 -5.95 -15.40 -0.35 -0.35 -0.65 -1.20 -0.65 -1.90 0 -0.65 -0.20 -1.20 -0.50 -1.20 -0.25 0 -0.50 -0.55 -0.50 -1.25 0 -0.70 -0.20 -1.25 -0.50 -1.25 -0.25 0 -0.50 -0.55 -0.50 -1.25 0 -0.70 -0.25 -1.25 -0.55 -1.25 -0.25 0 -0.40 -0.20 -0.20 -0.45 0.15 -0.25 -0.10 -0.85 -0.55 -1.25 -0.75 -0.75 -0.95 -0.65 -2.65 1.15 -1.05 1.10 -2.55 2.30 -3.35 2.60 -1.55 0.65 -23.75 1.05 -24.65 0.45 -0.55 -0.30 6.45 -18.35 8.60 -22.10 1.85 -3.35 6.70 -4.80 10.50 -3.25 1.40 0.60 4.60 3.80 5.85 5.85 0.40 0.60 2.45 0.75 12.60 0.80 6.70 0 12.65 0.20 13.20 0.40 0.60 0.20 1.40 1.05 1.75 1.95 0.35 0.90 0.75 1.70 0.90 1.85 0.20 0.15 0.75 1.55 1.25 3.10 0.55 1.60 1.15 2.90 1.40 2.90 0.25 0 0.30 0.20 0.15 0.50 -0.15 0.25 -0.05 0.50 0.20 0.50 0.30 0 0.70 0.90 0.85 2 0.20 1.10 0.50 2 0.65 2 0.20 0 0.40 0.50 0.40 1.10 0.05 0.65 0.35 1.20 0.65 1.30 0.25 0.10 0.50 0.65 0.50 1.15 0 0.55 0.40 1.70 0.85 2.60 0.45 0.90 0.80 1.75 0.75 2 -0.05 0.20 0.10 0.35 0.30 0.35 0.20 0 0.40 0.50 0.45 1.10 0.05 0.55 0.30 1.20 0.50 1.35 0.20 0.15 0.45 0.65 0.55 1.05 0.20 0.90 4.30 11.05 6.85 17 1.05 2.40 1.95 5.50 2.10 7.10 0.30 2.75 0.25 2.90 -1.50 4.65 l-1.75 1.75 -12.80 0 c-7.05 0 -12.80 -0.15 -12.80 -0.35 0 -0.20 0.45 -0.80 1 -1.40 1.10 -1.15 1.80 -6.05 0.90 -6.35 -0.25 -0.10 -0.50 -0.65 -0.55 -1.30 0 -0.60 -0.20 -1.10 -0.40 -1.10 -0.15 0 -0.70 -0.95 -1.15 -2.15 l-0.80 -2.10 -10.10 0.05 c-5.60 0 -10.55 -0.20 -11.10 -0.45 -0.60 -0.30 -0.80 -0.30 -0.60 0.05 0.40 0.65 -0.95 1.15 -1.55 0.55 -0.75 -0.75 -1.35 0.25 -3.35 5.30 -3.85 9.65 -3.35 9.40 -19.20 9.50 -6.70 0 -12.30 -0.15 -12.40 -0.35z"/>
 </g>
 <g fill="#5c5b60">
  <path d="M203.15 68.70 c-0.15 -0.40 -0.05 -1 0.30 -1.35 0.40 -0.40 0.55 -0.20 0.55 0.80 0 1.50 -0.35 1.75 -0.85 0.55z"/>
  <path d="M195.55 67.30 c-0.55 -0.65 -0.50 -0.85 0.15 -1.10 1.10 -0.40 1.50 0.05 0.95 1.05 -0.45 0.75 -0.55 0.75 -1.10 0.05z"/>
  <path d="M112 41.90 c0 -0.35 1.85 -3.50 4.15 -7 2.25 -3.55 5.70 -8.90 7.60 -11.90 1.95 -3.05 4.80 -7.55 6.40 -10 l2.95 -4.50 4.40 0 4.45 0 1.30 1.85 c1.15 1.70 2.50 3.80 6.50 10.15 0.60 0.95 2.10 3.35 3.35 5.25 1.20 1.95 3.75 6 5.65 9 1.85 3.05 3.70 5.85 4.05 6.30 0.40 0.40 0.70 0.95 0.70 1.15 0 0.20 -2.05 0.25 -4.60 0.20 l-4.60 -0.15 -2.50 -3.75 -2.55 -3.75 -11.95 0 c-9.45 0 -12 0.15 -12.20 0.65 -0.10 0.35 -1.15 2.05 -2.30 3.75 l-2.05 3.10 -4.35 0.15 c-3.35 0.10 -4.40 0 -4.40 -0.50z m32.35 -14.15 c0.25 -0.85 -6.05 -10.75 -6.85 -10.75 -0.25 0 -1.50 1.65 -2.80 3.65 -1.25 1.95 -2.75 4.20 -3.25 4.95 -1.80 2.55 -1.55 2.70 5.90 2.65 4.15 0 6.90 -0.20 7 -0.50z"/>
  <path d="M173 39.55 l0 -3 7.40 -4.90 c20.40 -13.65 22.65 -15.30 22.20 -15.75 -0.30 -0.30 -5.85 -0.45 -14.30 -0.40 -12.95 0.05 -13.80 0 -13.85 -0.85 -0.05 -0.50 -0.10 -2 -0.10 -3.40 l-0.10 -2.50 22 0 22 0 0.15 2.75 0.15 2.75 -9.90 6.60 c-5.45 3.65 -11.85 7.95 -14.25 9.60 -2.40 1.70 -4.60 3.05 -4.85 3.05 -0.50 0 -1.20 1.50 -0.85 1.85 0.10 0.10 7.10 0.20 15.50 0.15 l15.30 -0.05 0 3.55 0 3.50 -23.25 0 -23.25 0 0 -2.95z"/>
  <path d="M230.05 39.55 l-0.05 -2.95 5.65 -3.65 c3.05 -2.05 5.85 -3.90 6.15 -4.20 0.30 -0.25 4.55 -3.10 9.35 -6.25 4.85 -3.15 8.80 -6.10 8.85 -6.50 0 -0.65 -1.85 -0.75 -14.10 -0.60 -9.65 0.10 -14.20 -0.05 -14.40 -0.40 -0.20 -0.30 -0.30 -1.85 -0.30 -3.40 l0.05 -2.85 22.15 -0.15 22.10 -0.10 0 2.95 0 2.95 -4.45 2.90 c-17.95 11.80 -25.50 17.05 -25.55 17.70 0 0.65 2.05 0.75 15.60 0.75 l15.65 0 0 3.25 -0.05 3.25 -23.30 0.15 -23.30 0.10 -0.05 -2.95z"/>
  <path d="M293.80 41.75 c-2.70 -0.95 -5.20 -3.55 -6 -6.20 -0.45 -1.55 -0.60 -5 -0.55 -10.85 0.10 -10.25 0.65 -11.95 4.60 -14.45 l2.40 -1.50 16.25 -0.25 16.25 -0.30 3 1.40 c3.35 1.50 5 3.35 5.65 6.25 0.20 1.05 0.35 5.85 0.30 10.70 -0.10 9.55 -0.35 10.50 -3.05 13.05 -2.85 2.75 -3.60 2.85 -20.95 2.85 -12.40 0 -16.40 -0.15 -17.90 -0.70z m32.15 -8.05 c1.40 -1.55 1.40 -1.55 1.30 -8.25 -0.05 -3.70 -0.25 -7.10 -0.50 -7.60 -0.90 -2.10 -2.60 -2.35 -15.20 -2.35 -8.05 0 -12.40 0.20 -13.30 0.60 -1.85 0.85 -2.40 3.30 -2.20 10.50 0.20 6.50 0.55 7.55 2.70 8.45 0.55 0.20 6.60 0.35 13.40 0.30 l12.45 -0.10 1.35 -1.55z"/>
 </g>
 <g fill="#000000">
  <path d="M13.50 72.65 c0 -0.65 8.90 -21.70 9.85 -23.30 0.50 -0.80 1.75 -2.20 2.80 -3.05 l1.95 -1.55 15.70 -0.15 c14.75 -0.15 15.75 -0.10 17.55 0.85 1.95 1 10.30 9.05 9.40 9.05 -0.30 0 -2.30 -1.80 -4.50 -4 -5.55 -5.55 -5.55 -5.55 -19.30 -5.40 l-11.25 0.15 6.10 5.75 c3.45 3.25 6.15 6.15 6.15 6.70 0.05 1 -4.10 11.05 -5.10 12.35 -0.35 0.45 -1.40 1.30 -2.35 1.90 -1.65 1 -2.40 1.05 -14.35 1.05 -6.95 0 -12.65 -0.15 -12.65 -0.35z m26.75 -1.35 c2.10 -1.35 2.45 -1.90 5.05 -8.15 l2.30 -5.55 -4.80 -4.80 c-6.90 -6.80 -7.70 -7.40 -10.95 -7.40 -3.15 -0.05 -5.30 0.95 -7 3.20 -1.05 1.40 -9.30 20.10 -10.20 23.05 -0.30 0.90 0.25 0.95 11.95 0.75 11 -0.15 12.35 -0.25 13.65 -1.10z"/>
  <path d="M64.60 72.50 c-1.30 -0.55 -15.75 -14.55 -15.35 -14.90 0.15 -0.15 3.55 3 7.65 7 7.75 7.65 8.20 7.90 12.85 7.90 3.90 0 6.70 -3.70 5.75 -7.60 -0.45 -2 -2.80 -7.85 -9.45 -23.80 -4.70 -11.40 -5.65 -14 -4.65 -12.85 0.45 0.50 8.45 20.05 12.85 31.50 2.55 6.50 2.70 8.25 0.75 10.85 l-1.05 1.40 4.80 0.05 c2.60 0.05 5.10 0.10 5.50 0.10 0.40 0 3.90 -0.05 7.80 -0.10 l7.05 -0.05 1.45 -1.55 c2.50 -2.70 2.20 -4.05 -4.60 -20.55 -3.30 -8.05 -7.95 -19.50 -10.25 -25.40 -2.35 -5.90 -4.65 -11.50 -5.10 -12.40 -2 -3.95 -5.10 -4.70 -18.95 -4.50 -5.55 0.05 -10.25 -0.05 -10.50 -0.30 -0.20 -0.20 5.25 -0.30 12.10 -0.20 10.65 0.15 12.75 0.30 14.05 1 2.40 1.30 3.95 3.50 5.65 7.75 1.60 4.25 8.60 21.45 13.55 33.40 6.10 14.80 6.65 16.50 6.30 18.45 -0.20 1 -1 2.55 -1.80 3.45 l-1.40 1.60 -16.95 0.10 c-9.60 0.05 -17.40 -0.10 -18.05 -0.35z"/>
  <path d="M124.50 71.65 c-0.05 -0.10 -0.05 -2.65 -0.05 -5.75 l0 -5.60 4.40 -0.15 c2.40 -0.05 5.70 0 7.30 0.15 3.65 0.40 4.60 1.55 4.60 5.80 0 2.35 -0.25 3.10 -1.15 4 -1.05 1.05 -1.70 1.15 -8.10 1.40 -3.85 0.15 -7 0.20 -7 0.15z m7.80 -1.15 c6.90 0 7.70 -0.45 7.70 -4.50 0 -2.05 -0.25 -2.80 -1.25 -3.75 -1.15 -1.20 -1.50 -1.25 -7.40 -1.25 l-6.25 0 0 5.05 c0 4.20 0.15 4.95 0.75 4.75 0.40 -0.15 3.30 -0.30 6.45 -0.30z"/>
  <path d="M144.50 66 c0 -3.65 0.20 -6 0.50 -6 0.30 0 0.50 2.35 0.50 6 0 3.65 -0.20 6 -0.50 6 -0.30 0 -0.50 -2.35 -0.50 -6z"/>
  <path d="M172 66.50 l0 -5.50 -3.50 0 c-1.90 0 -3.50 -0.20 -3.50 -0.40 0 -0.20 3.40 -0.40 7.50 -0.45 4.15 0 7.50 0.15 7.50 0.40 0 0.25 -1.65 0.45 -3.60 0.45 l-3.65 0 0.15 5.50 c0.10 3.65 0 5.50 -0.35 5.50 -0.35 0 -0.55 -1.95 -0.55 -5.50z"/>
  <path d="M183.35 66.15 l0.10 -5.90 7 -0.15 c6.50 -0.10 7.10 -0.05 8.05 0.90 2.05 2.05 0.45 6.45 -2.15 5.75 -0.95 -0.25 -1 -0.20 -0.35 0.35 1.35 1.15 3.65 4.40 3.30 4.75 -0.40 0.45 -2.10 -1.20 -3.35 -3.20 l-1.05 -1.70 -5.40 0.10 -5.40 0.10 0.25 2.40 c0.20 1.85 0.10 2.45 -0.40 2.45 -0.55 0 -0.70 -1.20 -0.60 -5.85z m14.65 -1.15 c0.70 -1.10 0.60 -2.35 -0.30 -3.20 -0.60 -0.65 -2 -0.80 -7.20 -0.80 l-6.40 0 0.05 2.55 0.05 2.50 6.65 -0.15 c5.30 -0.10 6.80 -0.30 7.15 -0.90z"/>
  <path d="M202.85 71.65 c-0.15 -0.25 -0.30 -2.95 -0.30 -6 -0.10 -5.40 -0.05 -5.65 0.90 -5.65 1 0 1.05 0.30 1.05 6 0 4.90 -0.15 6 -0.70 6 -0.40 0 -0.85 -0.15 -0.95 -0.35z"/>
  <path d="M207.30 71.55 c-0.20 -0.30 -0.30 -3.05 -0.20 -6.10 l0.15 -5.50 7.40 0.15 c8 0.15 8.35 0.30 8.35 2.95 0 0.75 -0.35 1.60 -0.75 1.95 -0.65 0.55 -0.65 0.70 0 1.35 1.10 1.05 0.90 3.35 -0.30 4.45 -0.90 0.80 -2 1 -7.70 1.10 -4.50 0.15 -6.75 0 -6.95 -0.35z m14 -2.30 c0.60 -2.50 0.25 -2.70 -6.50 -2.85 l-6.20 -0.15 -0.20 2.15 -0.15 2.10 6.35 0 6.40 0 0.30 -1.25z m-0.90 -4.50 c0.80 -0.20 1.10 -0.60 1.10 -1.70 0 -0.85 -0.30 -1.55 -0.80 -1.75 -0.45 -0.15 -3.40 -0.30 -6.60 -0.30 l-5.85 0 0.15 2.15 0.20 2.10 5.30 -0.15 c2.95 -0.05 5.85 -0.25 6.50 -0.35z"/>
  <path d="M229.10 71.25 c-2.05 -0.90 -2.60 -2.40 -2.60 -7.30 0 -3.20 0.15 -3.95 0.75 -3.95 0.60 0 0.70 0.50 0.45 2.65 -0.35 3.15 0.50 6.65 1.80 7.35 0.50 0.25 2.95 0.50 5.45 0.50 4.30 0 4.50 -0.05 5.55 -1.35 0.95 -1.20 1.05 -1.90 0.90 -5.25 -0.10 -2.15 0 -3.90 0.20 -3.90 0.25 0 0.40 2 0.40 4.45 0 5.20 -0.60 6.35 -3.75 7.05 -2.90 0.70 -7.25 0.55 -9.15 -0.25z"/>
  <path d="M246.50 66 c0 -3.65 0.20 -6 0.50 -6 0.30 0 0.50 2.35 0.50 6 0 3.65 -0.20 6 -0.50 6 -0.30 0 -0.50 -2.35 -0.50 -6z"/>
  <path d="M251.50 65.85 l0 -5.95 7.05 0.20 7.05 0.15 1.20 1.50 c1.90 2.40 1.65 6.45 -0.65 9.25 -0.15 0.15 -3.45 0.35 -7.45 0.50 l-7.20 0.25 0 -5.90z m14.50 3.65 c1.40 -1.75 1.35 -5.95 0 -7.40 -0.95 -1 -1.50 -1.10 -7.25 -1.10 l-6.25 0 0 5.05 0 5.05 6.30 -0.15 c6 -0.20 6.30 -0.25 7.20 -1.45z"/>
  <path d="M293.50 66 l0 -6 7.05 0 c3.85 0 7.45 0.20 7.95 0.50 1.20 0.65 1.70 2.85 0.95 4.60 -0.55 1.30 -1.25 1.65 -2.90 1.40 -0.35 -0.05 0.30 1.05 1.45 2.45 1.20 1.40 2 2.70 1.85 2.90 -0.45 0.45 -2.75 -1.75 -3.65 -3.45 -0.70 -1.40 -0.75 -1.40 -6.20 -1.40 l-5.50 0 0 2.50 c0 1.40 -0.20 2.50 -0.50 2.50 -0.30 0 -0.50 -2.35 -0.50 -6z m15 -1 c0.60 -0.95 0.60 -2.05 0 -3 -0.35 -0.60 -1.90 -0.80 -7.25 -0.90 l-6.75 -0.20 0 2.70 0 2.65 6.75 -0.25 c5.30 -0.20 6.90 -0.40 7.25 -1z"/>
  <path d="M313.10 67.40 c0.25 -4.40 0.35 -4.65 1.85 -6 1.45 -1.30 1.85 -1.40 6.10 -1.40 5.15 0 6.25 0.40 7.25 2.75 0.80 1.95 0.95 9.25 0.20 9.25 -0.25 0 -0.50 -1.25 -0.50 -2.75 l0 -2.75 -6.75 0 -6.75 0 0 2.75 c0 2.20 -0.15 2.75 -0.80 2.75 -0.75 0 -0.80 -0.55 -0.60 -4.60z m14.65 -3.25 c-0.60 -2.45 -1.45 -2.90 -6.25 -3.05 -4.20 -0.20 -4.50 -0.15 -5.70 1.10 -0.75 0.70 -1.30 1.70 -1.30 2.30 0 0.95 0.30 1 6.80 1 l6.80 0 -0.35 -1.35z"/>
  <path d="M148.80 70.95 c0.25 -0.40 1.85 -0.50 5.30 -0.30 7.35 0.45 9.10 -0.20 8.15 -3.15 -0.30 -0.90 -0.75 -1 -5.95 -1 -4.95 0 -5.85 -0.15 -7 -1.05 -1.45 -1.15 -1.65 -2.75 -0.60 -4.25 0.65 -0.85 1.50 -0.95 7.50 -1.10 4.70 -0.15 6.80 -0.05 6.80 0.35 0 0.35 -2.10 0.55 -6.50 0.55 -5.90 0 -6.50 0.10 -7 0.95 -0.70 1.35 -0.65 1.85 0.30 2.75 0.60 0.65 1.95 0.80 6.40 0.80 6.25 0 6.80 0.25 6.80 3 0 1 -0.25 2.05 -0.60 2.40 -0.85 0.85 -14.10 0.85 -13.60 0.05z"/>
  <path d="M273.25 70.25 c-1.05 -1.05 -1.25 -1.65 -1.25 -4.40 0 -2.45 0.25 -3.55 0.95 -4.40 0.95 -1.15 1.20 -1.20 8.05 -1.20 l7.10 0 1.20 1.40 c2 2.30 1.55 7.45 -0.75 9.20 -0.55 0.40 -3 0.60 -7.45 0.65 -6.40 0 -6.70 -0.05 -7.85 -1.25z m15.15 -0.90 c1.65 -1.50 1.55 -5.45 -0.15 -7.10 -1.15 -1.20 -1.50 -1.25 -7.15 -1.25 -7.55 0 -8.35 0.45 -8.35 4.65 0 3.95 0.90 4.75 5.45 4.95 6 0.25 8.95 -0.10 10.20 -1.25z"/>
  <path d="M111 42.70 c0 -0.25 8.95 -14.55 12 -19.20 1.20 -1.80 4.10 -6.35 5.90 -9.25 0.85 -1.35 2.15 -3.35 2.85 -4.35 l1.30 -1.90 4.60 0 4.60 0.05 2 3.20 c1.80 2.90 5.85 9.25 9.70 15.25 0.80 1.25 2.75 4.35 4.35 6.90 1.65 2.60 3.55 5.60 4.30 6.75 0.75 1.15 1.40 2.25 1.40 2.50 0 0.20 -2.25 0.35 -5 0.35 l-4.95 0 -1.40 -2.35 c-0.75 -1.35 -1.85 -3.10 -2.50 -3.95 l-1.15 -1.55 -11.65 -0.10 -11.60 -0.10 -2.30 3.90 -2.30 3.90 -5.10 0.15 c-2.75 0.05 -5.05 0 -5.05 -0.20z m10.90 -2.80 c0.80 -1.20 1.85 -2.90 2.30 -3.80 l0.85 -1.60 12.35 0.10 12.35 0.15 2.45 3.65 2.50 3.60 4.20 0 4.20 0 -1.10 -1.35 c-0.60 -0.80 -2.65 -4 -4.60 -7.15 -2 -3.15 -4.50 -7.20 -5.65 -9 -2.40 -3.70 -5.80 -9 -8.20 -12.85 l-1.65 -2.65 -4.35 0 c-3.85 0.05 -4.40 0.15 -5.10 1.15 -0.40 0.60 -4.65 7.30 -9.45 14.85 -4.75 7.55 -9.10 14.30 -9.60 14.95 -0.50 0.65 -0.90 1.40 -0.90 1.60 0 0.25 1.80 0.45 4 0.45 l3.95 0 1.45 -2.10z"/>
  <path d="M130 27.55 c0 -0.55 0.15 -1.10 0.40 -1.25 0.20 -0.10 1.70 -2.40 3.35 -5 1.85 -3 3.25 -4.80 3.80 -4.80 0.80 0 7.75 10.35 7.25 10.85 -0.30 0.30 -2.70 -3.15 -5.55 -8.05 -0.75 -1.25 -1.50 -2.30 -1.65 -2.30 -0.20 0.05 -1.15 1.30 -2.10 2.85 -0.95 1.55 -2.50 3.95 -3.35 5.30 -0.90 1.35 -1.65 2.55 -1.65 2.65 0 0.10 3.30 0.25 7.40 0.35 l7.35 0.15 -7.60 0.10 c-7.30 0.10 -7.65 0.05 -7.65 -0.85z"/>
  <path d="M172.50 39.80 l0 -3.20 3.65 -2.45 c24.45 -16.60 28.10 -18.95 27 -17.60 -0.35 0.45 -7.15 5.15 -15.10 10.50 l-14.50 9.70 -0.05 2.65 0 2.60 22.75 0 22.75 0 0 -3 0 -3 -15.35 -0.10 c-14.30 -0.15 -15.40 -0.20 -15.40 -1.05 0 -0.60 4.75 -4.05 14.75 -10.80 l14.75 -9.90 0.15 -2.60 0.15 -2.55 -21.75 0 -21.80 0 0 3 0 3 14.65 0.05 c8 0.05 13.95 0.25 13.10 0.45 -0.80 0.20 -7.50 0.40 -14.85 0.45 l-13.30 0.05 -0.20 -3.80 c-0.10 -2.25 0.05 -3.90 0.35 -4 0.30 -0.15 10.40 -0.15 22.50 -0.10 l22 0.15 0.15 3.05 0.15 3.05 -5.40 3.55 c-11.30 7.45 -25.35 17.10 -24.90 17.10 0.30 0.05 7.40 0 15.90 0 l15.35 -0.05 0 4.05 0 4 -23.75 0 -23.75 0 0 -3.20z"/>
  <path d="M229.75 39.75 l0 -3.25 15.25 -10.25 c8.35 -5.65 15.30 -10.25 15.35 -10.25 0.70 0 -0.20 1.05 -1.70 2.05 -1.05 0.70 -7.35 4.95 -14 9.45 -6.70 4.55 -12.60 8.45 -13.15 8.75 -0.80 0.40 -1 1 -1 3.10 l0 2.65 23 0 23 0 0 -3 0 -3 -15.85 -0.05 c-10.80 -0.05 -15.30 -0.20 -13.95 -0.50 1.05 -0.25 8.35 -0.40 16.15 -0.35 l14.25 0.15 0.05 3.75 0.05 3.75 -23.75 0.15 -23.70 0.10 0 -3.25z"/>
  <path d="M295 42.55 c-2.05 -0.65 -4.20 -1.90 -5.35 -3.15 -2.30 -2.45 -2.65 -4.25 -2.70 -14.05 -0.05 -10.15 0.15 -11 3.20 -14.25 2.70 -2.80 4.70 -3.10 21.05 -3.10 8.10 0 15.55 0.25 16.80 0.55 3.10 0.70 6 2.80 7.05 5.20 0.80 1.70 0.95 3.40 0.95 11.70 0 8.80 -0.10 9.95 -1 11.85 -1.25 2.60 -4.15 4.55 -7.60 5.20 -2.95 0.60 -30.55 0.60 -32.40 0.05z m34.40 -1.30 c2.20 -0.95 3.95 -2.50 4.95 -4.45 0.90 -1.75 1.40 -16.80 0.70 -20.60 -0.50 -2.60 -2.30 -4.80 -5.20 -6.25 -1.75 -0.95 -2.85 -1 -18.80 -0.85 l-16.95 0.15 -2.20 1.50 c-3.60 2.55 -4.10 4.20 -4.30 13.75 -0.10 5.50 0.05 8.95 0.45 10.45 0.75 2.60 3.75 5.80 6.15 6.50 0.85 0.25 8.70 0.50 17.45 0.50 13.30 0.05 16.20 -0.10 17.75 -0.70z"/>
  <path d="M298.75 35.55 c-2.55 -1.05 -3 -2.25 -3.20 -8.95 -0.10 -3.85 0.05 -7 0.45 -8.20 0.90 -3.15 2 -3.40 15.70 -3.40 6.45 0 12.30 0.20 13 0.50 2.55 0.95 2.95 2.40 2.90 10 0 7.70 -0.45 9 -3.20 9.95 -1.80 0.65 -24.15 0.70 -25.65 0.10z m26.95 -2.10 c1.25 -1.45 1.30 -1.80 1.30 -7.75 0 -6.50 -0.55 -8.75 -2.25 -9.40 -0.45 -0.15 -6.55 -0.30 -13.50 -0.30 l-12.70 0 -1 1.30 c-0.95 1.20 -1.05 2 -1.05 8.30 0 6.70 0.05 7 1.25 8.15 l1.20 1.25 12.75 0 12.70 0 1.30 -1.55z"/>
  <path d="M245 34.65 c0 -0.35 14.05 -10 25.35 -17.40 l4.60 -3 0 -2.60 0.05 -2.65 -21.75 0 -21.75 0 0 3 0 3 14.65 0.05 c8.10 0.05 14.05 0.25 13.35 0.45 -0.70 0.20 -7.40 0.40 -14.85 0.45 l-13.65 0.05 0 -4 0 -4 22.50 0 22.50 0 0 3.15 0 3.20 -6.60 4.45 c-25.60 17.30 -24.40 16.50 -24.40 15.85z"/>
  <path d="M29.65 33.40 c4.05 -10.50 9.20 -22.45 10 -23.35 4.15 -4.55 11.55 -3.50 14.40 2.05 1.45 2.80 4.55 10.95 4.30 11.20 -0.10 0.15 -1.05 -1.85 -2.05 -4.40 -3.45 -8.75 -4.95 -10.45 -9.40 -10.75 -2.95 -0.25 -5.45 0.80 -7 2.90 -0.70 0.90 -9.40 21.60 -9.40 22.30 0 0.45 21.55 0.05 23.25 -0.40 2.55 -0.70 5.75 -3.70 5.75 -5.45 0.05 -1.10 0.10 -1.15 0.55 -0.35 0.75 1.30 -1.60 4.55 -4.25 5.85 -1.95 0.90 -3.05 1 -14.25 1 -9.50 0 -12.10 -0.15 -11.90 -0.60z"/>
  <path d="M58.80 25.25 c-0.45 -1.30 -0.35 -1.60 0.25 -0.60 0.30 0.50 0.45 1.05 0.30 1.15 -0.10 0.15 -0.35 -0.10 -0.55 -0.55z"/>
 </g>
</svg>