<?xml version="1.0" encoding="UTF-8"?>
<!DOCTYPE svg PUBLIC "-//W3C//DTD SVG 1.1//EN" "http://www.w3.org/Graphics/SVG/1.1/DTD/svg11.dtd">
<!-- Creator: CorelDRAW 2021 (64 Bit) -->
<svg xmlns="http://www.w3.org/2000/svg" xml:space="preserve" width="65.6674mm" height="48.5914mm" version="1.1" style="shape-rendering:geometricPrecision; text-rendering:geometricPrecision; image-rendering:optimizeQuality; fill-rule:evenodd; clip-rule:evenodd"
viewBox="0 0 6566.74 4859.14"
 xmlns:xlink="http://www.w3.org/1999/xlink"
 xmlns:xodm="http://www.corel.com/coreldraw/odm/2003">
 <defs>
  <style type="text/css">
   <![CDATA[
    .fil1 {fill:url(#id0)}
    .fil0 {fill:url(#id1)}
    .fil2 {fill:url(#id2)}
    .fil3 {fill:url(#id3)}
   ]]>
  </style>
  <linearGradient id="id0" gradientUnits="userSpaceOnUse" x1="1619.05" y1="2677.18" x2="1619.05" y2="4841.87">
   <stop offset="0" style="stop-opacity:1; stop-color:#3E5CA7"/>
   <stop offset="0.278431" style="stop-opacity:1; stop-color:#2779BD"/>
   <stop offset="1" style="stop-opacity:1; stop-color:#0F96D3"/>
  </linearGradient>
  <linearGradient id="id1" gradientUnits="userSpaceOnUse" xlink:href="#id0" x1="2798.83" y1="44.07" x2="2798.83" y2="2034.68">
  </linearGradient>
  <linearGradient id="id2" gradientUnits="userSpaceOnUse" x1="2885.64" y1="2683.2" x2="2885.64" y2="4602.28">
   <stop offset="0" style="stop-opacity:1; stop-color:#08AEE5"/>
   <stop offset="0.619608" style="stop-opacity:1; stop-color:#4CC1E2"/>
   <stop offset="1" style="stop-opacity:1; stop-color:#91D5DE"/>
  </linearGradient>
  <linearGradient id="id3" gradientUnits="userSpaceOnUse" x1="4441.86" y1="-39.97" x2="4441.86" y2="4819.13">
   <stop offset="0" style="stop-opacity:1; stop-color:#9ED9DE"/>
   <stop offset="0.105882" style="stop-opacity:1; stop-color:#5DBADA"/>
   <stop offset="0.501961" style="stop-opacity:1; stop-color:#1B9BD6"/>
   <stop offset="0.858824" style="stop-opacity:1; stop-color:#2D88C8"/>
   <stop offset="1" style="stop-opacity:1; stop-color:#3F75B9"/>
  </linearGradient>
 </defs>
 <g id="Camada_x0020_1">
  <metadata id="CorelCorpID_0Corel-Layer"/>
  <path class="fil0" d="M2420.9 0.36l-0.83 0c-244.67,0 -489.25,134.19 -598.47,402.59l-626.75 1564.78 1620.44 0c287.09,0 546.81,-175.79 653.59,-442.28l449.58 -1122.5c108.83,-267.58 240.35,-401.78 484.33,-402.56l-1979.44 0 -2.45 -0.03z"/>
  <path class="fil1" d="M-1.7 4854.43l1632.9 0c287.44,0 547.83,-175.01 656.31,-441.11l459.34 -1126.64c137.51,-383.01 218.58,-556.08 492.97,-556.33l-1891.48 0.04c-2.85,-0.04 -5.75,-0.04 -8.6,-0.04 -274.54,-0.03 -552.14,172.97 -689.76,556.33l-651.68 1567.75z"/>
  <path class="fil2" d="M3240.46 2730.35l-0.46 0 -1891.73 0.04c166.44,2.15 331.26,67.87 462.6,188.67l1807.66 1761.1c475.33,451.83 1126.98,-33.8 923.43,-533.97l-281.34 -692.32 -549.03 -534.81c-133.56,-122.88 -301.76,-188.71 -471.13,-188.71z"/>
  <path class="fil3" d="M4404.94 0.39l-0.13 0 -0.13 0 -0.14 0 -0.13 0 -0.14 0 -0.13 0 -0.14 0 -0.13 0 -0.14 0 -0.13 0 -0.14 0 -0.13 0 -0.14 0 -0.13 0 -0.14 0 -0.13 0 -1979.44 0c243.6,1.17 486.66,135.36 595.35,402.56l1523.26 3743.24c145.77,358.21 -147.07,708.98 -499.67,713.25l1985.32 -0.04c352.36,-4.62 644.88,-355.21 499.11,-713.21l-1523.22 -3743.24c-109.19,-268.36 -353.87,-402.56 -598.56,-402.56zm-375.78 4859.05c4.38,0.07 8.79,0.07 13.13,0l-13.13 0z"/>
 </g>
</svg>
