<?xml version="1.0" encoding="UTF-8"?>
<!DOCTYPE svg PUBLIC "-//W3C//DTD SVG 1.1//EN" "http://www.w3.org/Graphics/SVG/1.1/DTD/svg11.dtd">
<!-- Creator: CorelDRAW 2021 (64 Bit) -->
<svg xmlns="http://www.w3.org/2000/svg" xml:space="preserve" width="187.48mm" height="48.5914mm" version="1.1" style="shape-rendering:geometricPrecision; text-rendering:geometricPrecision; image-rendering:optimizeQuality; fill-rule:evenodd; clip-rule:evenodd"
viewBox="0 0 18733.87 4855.48"
 xmlns:xlink="http://www.w3.org/1999/xlink"
 xmlns:xodm="http://www.corel.com/coreldraw/odm/2003">
 <defs>
  <style type="text/css">
   <![CDATA[
    .fil0 {fill:#FEFEFE;fill-rule:nonzero}
    .fil2 {fill:url(#id0)}
    .fil1 {fill:url(#id1)}
    .fil4 {fill:url(#id2)}
    .fil3 {fill:url(#id3)}
   ]]>
  </style>
  <linearGradient id="id0" gradientUnits="userSpaceOnUse" x1="1619.53" y1="2674.8" x2="1619.53" y2="4837.86">
   <stop offset="0" style="stop-opacity:1; stop-color:#3E5CA7"/>
   <stop offset="0.278431" style="stop-opacity:1; stop-color:#2779BD"/>
   <stop offset="1" style="stop-opacity:1; stop-color:#0F96D3"/>
  </linearGradient>
  <linearGradient id="id1" gradientUnits="userSpaceOnUse" xlink:href="#id0" x1="2798.42" y1="43.68" x2="2798.42" y2="2032.79">
  </linearGradient>
  <linearGradient id="id2" gradientUnits="userSpaceOnUse" x1="4440.21" y1="-40.3" x2="4440.21" y2="4815.14">
   <stop offset="0" style="stop-opacity:1; stop-color:#9ED9DE"/>
   <stop offset="0.105882" style="stop-opacity:1; stop-color:#5DBADA"/>
   <stop offset="0.501961" style="stop-opacity:1; stop-color:#1B9BD6"/>
   <stop offset="0.858824" style="stop-opacity:1; stop-color:#2D88C8"/>
   <stop offset="1" style="stop-opacity:1; stop-color:#3F75B9"/>
  </linearGradient>
  <linearGradient id="id3" gradientUnits="userSpaceOnUse" x1="2885.17" y1="2680.82" x2="2885.17" y2="4598.45">
   <stop offset="0" style="stop-opacity:1; stop-color:#08AEE5"/>
   <stop offset="0.619608" style="stop-opacity:1; stop-color:#4CC1E2"/>
   <stop offset="1" style="stop-opacity:1; stop-color:#91D5DE"/>
  </linearGradient>
 </defs>
 <g id="Camada_x0020_1">
  <metadata id="CorelCorpID_0Corel-Layer"/>
  <path class="fil0" d="M8071.52 1799.67l732.66 0 -364.98 -577.73 -367.67 577.73zm610.55 -1024.16l1142.35 1798.82 -529.12 0 -248.16 -393.88 -1217.23 0 -250.77 393.88 -527.81 0 1142.31 -1798.82 488.44 0z"/>
  <polygon class="fil0" points="12643.22,775.52 12643.22,1102.47 11058.41,2173.89 12706.28,2173.89 12706.28,2574.33 10250.9,2574.33 10250.9,2248.73 11843.58,1175.96 10312.63,1175.96 10312.63,775.52 "/>
  <polygon class="fil0" points="15603.84,775.52 15603.84,1102.47 14019.01,2173.89 15666.83,2173.89 15666.83,2574.33 13211.51,2574.33 13211.51,2248.73 14804.23,1175.96 13273.17,1175.96 13273.17,775.52 "/>
  <path class="fil0" d="M16730.15 1237.69c-44.63,38.53 -66.87,87.98 -66.87,148.37l0 577.73c0,57.82 22.24,107.66 66.87,149.68 44.66,39.37 99.41,59.54 164.13,60.42l1117.43 0c65.67,-2.61 120.38,-23.2 164.17,-61.69 44.63,-42.02 66.9,-91.48 66.9,-148.41l0 -577.73c0,-60.38 -22.27,-110.3 -66.9,-149.71 -43.79,-42.83 -98.5,-62.99 -164.17,-60.35l-1117.43 0c-64.72,-0.88 -119.47,19.68 -164.13,61.69zm1426.02 -462.18c160.99,0 297.55,51.18 409.65,153.62 112.83,102.4 168.88,226.28 168.04,371.59l0 748.42c0.84,145.34 -55.21,269.21 -168.04,371.61 -112.11,102.4 -248.66,153.58 -409.65,153.58l-1406.31 0c-160.14,0 -296.71,-51.18 -409.68,-153.58 -112,-102.4 -168.01,-226.27 -168.01,-371.61l0 -748.42c0,-145.31 56.02,-269.19 168.01,-371.59 112.97,-102.44 249.54,-153.62 409.68,-153.62l1406.31 0z"/>
  <path class="fil0" d="M8549.13 3706.52c0,-25.49 -5.04,-49.53 -15.02,-72.27 -10.01,-22.66 -23.65,-42.55 -40.89,-59.51 -17.28,-16.96 -37.37,-30.46 -60.42,-40.43 -23.01,-10.01 -47.26,-15.02 -72.72,-15.02l-547.92 0 0 491.61 549.75 0c25.41,0 49.52,-4.97 72.27,-15.02 22.7,-9.93 42.55,-23.58 59.51,-40.85 16.96,-17.24 30.42,-37.26 40.43,-59.96 9.98,-22.73 15.02,-47.09 15.02,-73.14l0 -115.41zm-806.02 -256.28l616.97 0c35.74,0 69.23,6.83 100.42,20.48 31.17,13.6 58.45,32.22 81.82,55.87 23.3,23.62 41.78,51.01 55.42,82.24 13.64,31.2 20.44,64.37 20.44,99.49l0 113.61c0,35.74 -6.8,69.2 -20.44,100.39 -13.64,31.2 -32.3,58.45 -55.91,81.78 -23.62,23.3 -51.01,41.81 -82.25,55.46 -31.2,13.6 -64.33,20.4 -99.51,20.4l-616.97 0 0 -629.73z"/>
  <polygon class="fil0" points="8792.61,3450.27 8861.71,3450.27 8861.71,4079.99 8792.61,4079.99 "/>
  <path class="fil0" d="M9612.28 4079.98l-600.65 0 0 -69.06 600.65 0c14.52,0 28.17,-2.72 40.89,-8.17 12.73,-5.47 23.94,-13.01 33.59,-22.7 9.69,-9.66 17.28,-20.9 22.74,-33.63 5.46,-12.72 8.13,-26.37 8.13,-40.89 0,-14.53 -2.68,-28.31 -8.13,-41.35 -5.47,-13.04 -12.87,-24.36 -22.28,-34.05 -9.37,-9.69 -20.58,-17.31 -33.59,-22.73 -13.04,-5.44 -26.83,-8.18 -41.35,-8.18l-460.73 0c-23.58,0 -46.04,-4.55 -67.26,-13.64 -21.15,-9.09 -39.8,-21.47 -55.84,-37.22 -16.08,-15.76 -28.66,-34.23 -37.72,-55.42 -9.13,-21.22 -13.64,-43.96 -13.64,-68.18 0,-24.21 4.51,-46.84 13.64,-67.68 9.06,-20.9 21.5,-39.24 37.23,-55 15.75,-15.75 34.26,-28.34 55.45,-37.71 21.18,-9.38 43.92,-14.1 68.14,-14.1l600.65 0 0 69.06 -600.65 0c-15.13,0 -28.94,2.89 -41.35,8.63 -12.44,5.75 -23.3,13.01 -32.72,21.82 -9.41,8.77 -16.75,19.56 -22.28,32.25 -5.43,12.73 -8.45,26.37 -9.05,40.9 2.43,30.32 13.29,55.73 32.72,76.35 19.39,20.55 43.57,30.88 72.69,30.88l460.73 0c24.22,0 46.91,4.55 68.14,13.61 21.18,9.09 39.66,21.53 55.45,37.29 15.73,15.73 28.17,34.23 37.23,55.42 9.09,21.18 13.6,43.93 13.6,68.14 0,24.25 -4.51,46.95 -13.6,68.18 -9.06,21.18 -21.5,39.8 -37.23,55.87 -15.79,16.08 -34.26,28.59 -55.45,37.69 -21.22,9.12 -43.92,13.64 -68.14,13.64z"/>
  <polygon class="fil0" points="10638.14,3519.32 10279.18,3519.32 10279.18,4079.98 10210.12,4079.98 10210.12,3519.32 9851.23,3519.32 9851.23,3450.26 10638.14,3450.26 "/>
  <path class="fil0" d="M10871.72 3766.48l590.63 0c16.96,0 33.31,-3.21 49.07,-9.55 15.75,-6.35 29.54,-15.12 41.35,-26.36 11.8,-11.14 21.39,-24.22 28.66,-39.03 7.25,-14.84 10.85,-31.06 10.85,-48.64 0,-17.56 -3.6,-33.91 -10.85,-49.07 -7.26,-15.12 -17.17,-28.16 -29.58,-39.05 -12.41,-10.93 -26.65,-19.54 -42.69,-25.91 -16.04,-6.35 -32.9,-9.55 -50.44,-9.55l-587.01 0 0 247.17zm728.78 12.73c-30.32,29.08 -67.22,46.95 -110.9,53.58l184.5 247.18 -86.36 0 -182.6 -244.44 -533.42 0 0 244.44 -69.06 0 0 -629.73 656.07 0c20.58,0 40.46,2.75 59.54,8.17 19.07,5.47 36.48,13.36 52.21,23.62 27.28,17.59 49.27,40.47 65.92,68.6 16.64,28.16 24.95,58.94 24.95,92.25 0,26.68 -5.29,51.64 -15.9,74.98 -10.61,23.29 -25.59,43.75 -44.95,61.33z"/>
  <polygon class="fil0" points="11824.01,3450.27 11893.07,3450.27 11893.07,4079.99 11824.01,4079.99 "/>
  <path class="fil0" d="M12790.83 3941.85c6.07,-12.69 9.09,-26.62 9.09,-41.81 0,-15.13 -3.21,-29.37 -9.55,-42.66 -6.35,-13.36 -14.94,-25.13 -25.87,-35.46 -10.93,-10.29 -23.62,-18.51 -38.14,-24.57 -14.56,-6.03 -30.04,-9.02 -46.43,-9.02l-567.86 0 0 222.58 567.86 0c23.05,0 45.05,-6.35 65.95,-19.08 20.87,-12.69 35.89,-29.37 44.95,-49.98zm-678.76 -223.53l567.01 0c13.93,0 28.17,-2.29 42.69,-6.8 14.53,-4.55 27.57,-11.24 39.1,-19.98 11.49,-8.78 20.9,-19.25 28.16,-31.38 7.22,-12.09 10.89,-25.73 10.89,-40.89 0,-15.72 -3.67,-29.83 -10.89,-42.23 -7.25,-12.41 -16.82,-22.84 -28.62,-31.38 -11.85,-8.46 -25.14,-15.02 -39.98,-19.53 -14.88,-4.52 -29.89,-6.8 -44.98,-6.8l-563.39 0 0 198.99zm679.68 36.38c23.02,16.32 41.63,37.22 55.87,62.64 14.25,25.48 21.4,52.73 21.4,81.78 0,25.49 -5.19,49.1 -15.48,70.89 -10.33,21.82 -24.22,40.9 -41.81,57.29 -17.56,16.32 -37.82,29.19 -60.87,38.6 -23.02,9.41 -47.27,14.06 -72.7,14.06l-635.15 0 0 -629.69 632.44 0c18.12,0 36.16,2.11 54.04,6.35 17.87,4.23 34.51,10.75 49.98,19.53 15.48,8.81 29.58,19.39 42.27,31.84 12.69,12.41 23.02,26.79 30.88,43.15 10.93,21.81 16.4,44.24 16.4,67.26 0,23.01 -5.01,45.44 -15.02,67.22 -10.01,21.85 -24.39,40.29 -43.19,55.45l-19.07 13.65z"/>
  <path class="fil0" d="M13123.34 4004.55c-23.68,-23.62 -42.27,-51.01 -55.91,-82.24 -13.64,-31.21 -20.44,-64.65 -20.44,-100.4l0 -371.65 69.06 0 0 371.65c0,25.45 5.01,49.67 15.05,72.7 9.98,23.01 23.44,43.18 40.37,60.41 16.96,17.28 36.8,30.92 59.51,40.9 22.73,10 47.12,15.01 73.21,15.01l304.36 0c25.38,0 49.66,-5.01 72.69,-15.01 23.02,-9.98 43.15,-23.44 60.41,-40.44 17.28,-16.96 30.92,-36.76 40.9,-59.51 9.97,-22.73 14.98,-46.77 14.98,-72.27l0 -373.45 69.06 0 0 371.65c0,35.75 -6.8,69.2 -20.44,100.4 -13.64,31.23 -32.26,58.62 -55.84,82.24 -23.02,23.01 -50.13,41.35 -81.4,54.99 -31.13,13.61 -64.65,20.44 -100.35,20.44l-302.63 0c-36.35,0 -70.09,-6.83 -101.31,-20.44 -31.13,-13.64 -58.24,-31.98 -81.26,-54.99z"/>
  <polygon class="fil0" points="14070.11,3450.27 14139.19,3450.27 14139.19,4079.99 14070.11,4079.99 "/>
  <path class="fil0" d="M15136.93 3706.52c0,-25.49 -5.01,-49.53 -14.98,-72.27 -9.94,-22.66 -23.59,-42.55 -40.9,-59.51 -17.27,-16.96 -37.4,-30.46 -60.41,-40.43 -22.98,-10.01 -47.27,-15.02 -72.7,-15.02l-547.94 0 0 491.61 549.74 0c25.45,0 49.56,-4.97 72.24,-15.02 22.77,-9.93 42.55,-23.58 59.54,-40.85 16.92,-17.24 30.5,-37.26 40.44,-59.96 9.97,-22.73 14.98,-47.09 14.98,-73.14l0 -115.41zm-806.02 -256.28l617.03 0c35.71,0 69.24,6.83 100.36,20.48 31.27,13.6 58.52,32.22 81.82,55.87 23.33,23.62 41.77,51.01 55.42,82.24 13.64,31.2 20.44,64.37 20.44,99.49l0 113.61c0,35.74 -6.8,69.2 -20.44,100.39 -13.65,31.2 -32.26,58.45 -55.84,81.78 -23.62,23.3 -51.05,41.81 -82.28,55.46 -31.2,13.6 -64.33,20.4 -99.49,20.4l-617.03 0 0 -629.73z"/>
  <path class="fil0" d="M15449.51 3708.31l0 113.61c0,26.05 5.01,50.41 15.06,73.14 9.97,22.7 23.58,42.73 40.89,59.96 17.17,17.28 37.22,30.92 59.89,40.89 22.8,10.01 47.12,14.99 73.14,14.99l467.08 0c26.12,0 50.62,-4.98 73.63,-14.99 23.05,-9.97 43.15,-23.61 60.42,-40.89 17.28,-17.24 30.92,-37.26 40.89,-59.96 9.98,-22.73 14.98,-47.09 14.98,-73.14l0 -113.61c0,-26.01 -5,-50.41 -14.98,-73.14 -9.97,-22.7 -23.61,-42.73 -40.89,-59.96 -17.28,-17.27 -37.37,-30.92 -60.42,-40.89 -23.01,-10.01 -47.51,-14.98 -73.63,-14.98l-467.08 0c-26.02,0 -50.34,4.97 -73.14,14.98 -22.67,9.97 -42.73,23.62 -59.89,40.89 -17.31,17.24 -30.92,37.26 -40.89,59.96 -10.05,22.73 -15.06,47.13 -15.06,73.14zm188.99 371.65c-35.71,0 -69.17,-6.79 -100.39,-20.4 -31.17,-13.64 -58.45,-32.15 -81.79,-55.45 -23.26,-23.34 -41.81,-50.55 -55.41,-81.79 -13.65,-31.2 -20.45,-64.65 -20.45,-100.39l0 -113.61c0,-35.11 6.8,-68.42 20.45,-99.93 13.6,-31.52 32.15,-58.91 55.41,-82.24 23.34,-23.3 50.62,-41.81 81.79,-55.42 31.23,-13.64 64.68,-20.44 100.39,-20.44l467.08 0c35.74,0 69.41,6.8 100.92,20.44 31.48,13.61 58.94,32.12 82.21,55.42 23.33,23.33 41.77,50.72 55.41,82.24 13.65,31.52 20.44,64.82 20.44,99.93l0 113.61c0,35.74 -6.79,69.2 -20.44,100.39 -13.64,31.24 -32.08,58.45 -55.41,81.79 -23.27,23.3 -50.73,41.81 -82.21,55.45 -31.52,13.61 -65.18,20.4 -100.92,20.4l-467.08 0z"/>
  <path class="fil0" d="M16583.54 3766.48l590.65 0c16.96,0 33.34,-3.21 49.03,-9.55 15.83,-6.35 29.58,-15.12 41.39,-26.36 11.81,-11.14 21.39,-24.22 28.62,-39.03 7.3,-14.84 10.93,-31.06 10.93,-48.64 0,-17.56 -3.63,-33.91 -10.93,-49.07 -7.22,-15.12 -17.17,-28.16 -29.5,-39.05 -12.41,-10.93 -26.69,-19.54 -42.73,-25.91 -16.04,-6.35 -32.86,-9.55 -50.48,-9.55l-586.99 0 0 247.17zm728.8 12.73c-30.35,29.08 -67.22,46.95 -110.9,53.58l184.54 247.18 -86.36 0 -182.67 -244.44 -533.41 0 0 244.44 -69.06 0 0 -629.73 656.05 0c20.62,0 40.51,2.75 59.55,8.17 19.11,5.47 36.55,13.36 52.24,23.62 27.28,17.59 49.24,40.47 65.92,68.6 16.64,28.16 25.02,58.94 25.02,92.25 0,26.68 -5.32,51.64 -15.97,74.98 -10.57,23.29 -25.55,43.75 -44.95,61.33z"/>
  <path class="fil0" d="M18290.05 3738.31l0 -31.8c0,-25.49 -5.01,-49.53 -14.95,-72.27 -10.05,-22.67 -23.69,-42.55 -40.89,-59.51 -17.28,-16.96 -37.44,-30.46 -60.42,-40.44 -23.02,-10.01 -47.3,-14.98 -72.73,-14.98l-308.94 0c-25.52,0 -49.49,4.97 -72.31,14.98 -22.66,9.98 -42.55,23.62 -59.51,40.9 -16.95,17.24 -30.42,37.25 -40.39,59.95 -10.05,22.74 -15.06,47.13 -15.06,73.14l0 30.01 685.18 0zm-6.32 -212.64c23.05,23.65 41.32,51.04 54.96,82.24 13.64,31.2 20.44,64.65 20.44,100.39l0 371.66 -69.09 0 0 -272.6 -685.18 0 0 272.6 -69.06 0 0 -371.66c0,-35.74 6.84,-69.2 20.48,-100.39 13.61,-31.2 32.26,-58.45 55.91,-81.78 23.58,-23.3 51.04,-41.81 82.21,-55.42 31.23,-13.64 64.4,-20.44 99.48,-20.44l307.18 0c35.71,0 69.24,6.8 100.39,20.44 31.17,13.61 58.6,31.94 82.28,54.96z"/>
  <path class="fil1" d="M2420.78 0l-0.83 0c-244.49,0 -488.88,134.09 -598.02,402.29l-626.28 1563.6 1619.22 0c286.87,0 546.4,-175.66 653.1,-441.95l449.24 -1121.65c108.75,-267.38 240.17,-401.48 483.97,-402.26l-1977.95 0 -2.45 -0.03z"/>
  <path class="fil2" d="M-0 4850.41l1631.67 0c287.22,0 547.42,-174.88 655.82,-440.78l458.99 -1125.79c137.41,-382.72 218.42,-555.66 492.6,-555.91l-1890.06 0.04c-2.85,-0.04 -5.75,-0.04 -8.59,-0.04 -274.33,-0.03 -551.72,172.84 -689.24,555.91l-651.19 1566.57z"/>
  <path class="fil3" d="M3239.72 2727.93l-0.46 0 -1890.31 0.04c166.31,2.15 331.01,67.82 462.25,188.53l1806.3 1759.77c474.97,451.49 1126.13,-33.77 922.73,-533.57l-281.13 -691.8 -548.62 -534.41c-133.46,-122.79 -301.53,-188.57 -470.78,-188.57z"/>
  <path class="fil4" d="M4403.32 0.03l-0.13 0 -0.13 0 -0.14 0 -0.13 0 -0.14 0 -0.13 0 -0.14 0 -0.13 0 -0.14 0 -0.13 0 -0.14 0 -0.13 0 -0.14 0 -0.13 0 -0.14 0 -0.13 0 -1977.95 0c243.42,1.17 486.29,135.26 594.9,402.26l1522.11 3740.42c145.66,357.94 -146.96,708.45 -499.29,712.71l1983.82 -0.04c352.09,-4.62 644.39,-354.94 498.73,-712.67l-1522.07 -3740.42c-109.11,-268.16 -353.6,-402.26 -598.11,-402.26zm-375.5 4855.39c4.38,0.07 8.78,0.07 13.12,0l-13.12 0z"/>
 </g>
</svg>
