<?xml version="1.0" encoding="UTF-8"?>
<!DOCTYPE svg PUBLIC "-//W3C//DTD SVG 1.1//EN" "http://www.w3.org/Graphics/SVG/1.1/DTD/svg11.dtd">
<!-- Creator: CorelDRAW 2021 (64 Bit) -->
<svg xmlns="http://www.w3.org/2000/svg" xml:space="preserve" width="187.48mm" height="48.5914mm" version="1.1" style="shape-rendering:geometricPrecision; text-rendering:geometricPrecision; image-rendering:optimizeQuality; fill-rule:evenodd; clip-rule:evenodd"
viewBox="0 0 18747.98 4859.14"
 xmlns:xlink="http://www.w3.org/1999/xlink"
 xmlns:xodm="http://www.corel.com/coreldraw/odm/2003">
 <defs>
  <style type="text/css">
   <![CDATA[
    .fil0 {fill:#606062;fill-rule:nonzero}
    .fil1 {fill:#7C8385;fill-rule:nonzero}
    .fil3 {fill:url(#id0)}
    .fil2 {fill:url(#id1)}
    .fil5 {fill:url(#id2)}
    .fil4 {fill:url(#id3)}
   ]]>
  </style>
  <linearGradient id="id0" gradientUnits="userSpaceOnUse" x1="1613.68" y1="2677.18" x2="1613.68" y2="4841.87">
   <stop offset="0" style="stop-opacity:1; stop-color:#3E5CA7"/>
   <stop offset="0.278431" style="stop-opacity:1; stop-color:#2779BD"/>
   <stop offset="1" style="stop-opacity:1; stop-color:#0F96D3"/>
  </linearGradient>
  <linearGradient id="id1" gradientUnits="userSpaceOnUse" xlink:href="#id0" x1="2793.46" y1="44.07" x2="2793.46" y2="2034.68">
  </linearGradient>
  <linearGradient id="id2" gradientUnits="userSpaceOnUse" x1="4436.49" y1="-39.97" x2="4436.49" y2="4819.13">
   <stop offset="0" style="stop-opacity:1; stop-color:#9ED9DE"/>
   <stop offset="0.105882" style="stop-opacity:1; stop-color:#5DBADA"/>
   <stop offset="0.501961" style="stop-opacity:1; stop-color:#1B9BD6"/>
   <stop offset="0.858824" style="stop-opacity:1; stop-color:#2D88C8"/>
   <stop offset="1" style="stop-opacity:1; stop-color:#3F75B9"/>
  </linearGradient>
  <linearGradient id="id3" gradientUnits="userSpaceOnUse" x1="2880.27" y1="2683.2" x2="2880.27" y2="4602.28">
   <stop offset="0" style="stop-opacity:1; stop-color:#08AEE5"/>
   <stop offset="0.619608" style="stop-opacity:1; stop-color:#4CC1E2"/>
   <stop offset="1" style="stop-opacity:1; stop-color:#91D5DE"/>
  </linearGradient>
 </defs>
 <g id="Camada_x0020_1">
  <metadata id="CorelCorpID_0Corel-Layer"/>
  <g id="_2241841087488">
   <path class="fil0" d="M8070.53 1801.39l733.21 0 -365.26 -578.17 -367.95 578.17zm611.01 -1024.93l1143.21 1800.18 -529.52 0 -248.35 -394.18 -1218.15 0 -250.96 394.18 -528.21 0 1143.17 -1800.18 488.81 0z"/>
   <polygon class="fil0" points="12645.68,776.46 12645.68,1103.66 11059.67,2175.89 12708.79,2175.89 12708.79,2576.63 10251.56,2576.63 10251.56,2250.78 11845.44,1177.21 10313.33,1177.21 10313.33,776.46 "/>
   <polygon class="fil0" points="15608.53,776.46 15608.53,1103.66 14022.51,2175.89 15671.57,2175.89 15671.57,2576.63 13214.4,2576.63 13214.4,2250.78 14808.32,1177.21 13276.1,1177.21 13276.1,776.46 "/>
   <path class="fil0" d="M16735.69 1238.98c-44.66,38.56 -66.92,88.05 -66.92,148.48l0 578.17c0,57.86 22.26,107.74 66.92,149.79 44.69,39.4 99.48,59.58 164.25,60.47l1118.27 0c65.72,-2.61 120.47,-23.22 164.29,-61.74 44.66,-42.05 66.95,-91.55 66.95,-148.52l0 -578.17c0,-60.43 -22.29,-110.38 -66.95,-149.82 -43.82,-42.86 -98.57,-63.04 -164.29,-60.4l-1118.27 0c-64.77,-0.88 -119.56,19.69 -164.25,61.74zm1427.09 -462.53c161.11,0 297.77,51.22 409.96,153.74 112.92,102.48 169.01,226.45 168.17,371.87l0 748.98c0.84,145.45 -55.25,269.41 -168.17,371.89 -112.19,102.48 -248.85,153.7 -409.96,153.7l-1407.37 0c-160.26,0 -296.93,-51.22 -409.99,-153.7 -112.08,-102.48 -168.14,-226.44 -168.14,-371.89l0 -748.98c0,-145.42 56.06,-269.39 168.14,-371.87 113.06,-102.52 249.73,-153.74 409.99,-153.74l1407.37 0z"/>
   <path class="fil1" d="M8548.5 3709.67c0,-25.51 -5.04,-49.57 -15.03,-72.32 -10.02,-22.68 -23.67,-42.58 -40.92,-59.55 -17.29,-16.97 -37.4,-30.48 -60.47,-40.46 -23.03,-10.02 -47.3,-15.03 -72.77,-15.03l-548.33 0 0 491.98 550.16 0c25.43,0 49.56,-4.97 72.32,-15.03 22.72,-9.94 42.58,-23.6 59.55,-40.88 16.97,-17.25 30.44,-37.29 40.46,-60.01 9.99,-22.75 15.03,-47.13 15.03,-73.2l0 -115.5zm-806.63 -256.47l617.44 0c35.77,0 69.28,6.84 100.5,20.5 31.19,13.61 58.49,32.24 81.88,55.91 23.32,23.64 41.81,51.05 55.46,82.3 13.65,31.22 20.46,64.42 20.46,99.56l0 113.7c0,35.77 -6.81,69.25 -20.46,100.47 -13.65,31.22 -32.32,58.49 -55.95,81.84 -23.64,23.32 -51.05,41.84 -82.31,55.5 -31.22,13.61 -64.38,20.42 -99.58,20.42l-617.44 0 0 -630.2z"/>
   <polygon class="fil1" points="8792.17,3453.23 8861.32,3453.23 8861.32,4083.43 8792.17,4083.43 "/>
   <path class="fil1" d="M9612.45 4083.41l-601.1 0 0 -69.11 601.1 0c14.53,0 28.19,-2.72 40.92,-8.18 12.74,-5.47 23.96,-13.02 33.62,-22.72 9.7,-9.67 17.29,-20.92 22.76,-33.66 5.46,-12.73 8.14,-26.39 8.14,-40.92 0,-14.54 -2.68,-28.33 -8.14,-41.38 -5.47,-13.05 -12.88,-24.38 -22.3,-34.08 -9.38,-9.7 -20.6,-17.32 -33.62,-22.75 -13.05,-5.44 -26.85,-8.19 -41.38,-8.19l-461.08 0c-23.6,0 -46.07,-4.55 -67.31,-13.65 -21.17,-9.1 -39.83,-21.49 -55.88,-37.25 -16.09,-15.77 -28.68,-34.26 -37.75,-55.46 -9.14,-21.24 -13.65,-43.99 -13.65,-68.23 0,-24.23 4.51,-46.88 13.65,-67.73 9.07,-20.92 21.52,-39.27 37.26,-55.04 15.76,-15.76 34.29,-28.36 55.49,-37.74 21.2,-9.39 43.95,-14.11 68.19,-14.11l601.1 0 0 69.11 -601.1 0c-15.14,0 -28.96,2.89 -41.38,8.64 -12.45,5.75 -23.32,13.02 -32.74,21.84 -9.42,8.78 -16.76,19.57 -22.3,32.27 -5.43,12.74 -8.46,26.39 -9.06,40.93 2.43,30.34 13.3,55.77 32.74,76.41 19.4,20.57 43.6,30.9 72.74,30.9l461.08 0c24.24,0 46.95,4.55 68.19,13.62 21.2,9.1 39.69,21.55 55.49,37.32 15.74,15.74 28.19,34.26 37.26,55.46 9.1,21.2 13.61,43.96 13.61,68.19 0,24.27 -4.51,46.99 -13.61,68.23 -9.07,21.2 -21.52,39.83 -37.26,55.91 -15.8,16.09 -34.29,28.61 -55.49,37.72 -21.24,9.13 -43.95,13.65 -68.19,13.65z"/>
   <polygon class="fil1" points="10639.09,3522.33 10279.86,3522.33 10279.86,4083.42 10210.75,4083.42 10210.75,3522.33 9851.58,3522.33 9851.58,3453.22 10639.09,3453.22 "/>
   <path class="fil1" d="M10872.84 3769.68l591.08 0c16.97,0 33.34,-3.21 49.11,-9.56 15.76,-6.35 29.56,-15.13 41.38,-26.38 11.81,-11.15 21.41,-24.24 28.68,-39.06 7.26,-14.85 10.86,-31.08 10.86,-48.68 0,-17.57 -3.6,-33.94 -10.86,-49.11 -7.27,-15.13 -17.18,-28.18 -29.6,-39.08 -12.42,-10.94 -26.67,-19.55 -42.72,-25.93 -16.05,-6.35 -32.92,-9.56 -50.48,-9.56l-587.45 0 0 247.36zm729.33 12.74c-30.34,29.1 -67.27,46.99 -110.98,53.62l184.64 247.37 -86.43 0 -182.74 -244.62 -533.82 0 0 244.62 -69.11 0 0 -630.2 656.56 0c20.6,0 40.49,2.75 59.58,8.18 19.08,5.47 36.51,13.37 52.25,23.64 27.3,17.6 49.31,40.5 65.97,68.65 16.65,28.18 24.97,58.98 24.97,92.32 0,26.7 -5.29,51.68 -15.91,75.04 -10.62,23.31 -25.61,43.78 -44.98,61.38z"/>
   <polygon class="fil1" points="11825.85,3453.23 11894.96,3453.23 11894.96,4083.43 11825.85,4083.43 "/>
   <path class="fil1" d="M12793.4 3945.18c6.07,-12.7 9.1,-26.64 9.1,-41.84 0,-15.14 -3.21,-29.39 -9.56,-42.69 -6.35,-13.37 -14.95,-25.15 -25.89,-35.49 -10.94,-10.3 -23.64,-18.52 -38.17,-24.59 -14.57,-6.03 -30.06,-9.03 -46.46,-9.03l-568.29 0 0 222.75 568.29 0c23.07,0 45.08,-6.35 66,-19.09 20.89,-12.7 35.92,-29.39 44.98,-50.02zm-679.27 -223.7l567.44 0c13.94,0 28.19,-2.29 42.72,-6.81 14.54,-4.55 27.59,-11.25 39.13,-20 11.5,-8.79 20.92,-19.26 28.18,-31.4 7.23,-12.1 10.9,-25.75 10.9,-40.92 0,-15.73 -3.67,-29.85 -10.9,-42.26 -7.26,-12.42 -16.83,-22.86 -28.64,-31.4 -11.86,-8.47 -25.16,-15.03 -40.01,-19.54 -14.89,-4.52 -29.91,-6.81 -45.01,-6.81l-563.81 0 0 199.14zm680.19 36.41c23.04,16.33 41.66,37.25 55.91,62.69 14.26,25.5 21.42,52.77 21.42,81.84 0,25.51 -5.19,49.14 -15.49,70.94 -10.34,21.84 -24.24,40.93 -41.84,57.33 -17.57,16.33 -37.85,29.21 -60.92,38.63 -23.04,9.42 -47.31,14.07 -72.75,14.07l-635.63 0 0 -630.16 632.92 0c18.13,0 36.19,2.11 54.08,6.35 17.88,4.23 34.54,10.76 50.02,19.54 15.49,8.82 29.6,19.4 42.3,31.86 12.7,12.42 23.04,26.81 30.9,43.18 10.94,21.83 16.41,44.27 16.41,67.31 0,23.03 -5.01,45.47 -15.03,67.27 -10.02,21.87 -24.41,40.32 -43.22,55.49l-19.08 13.66z"/>
   <path class="fil1" d="M13126.16 4007.93c-23.7,-23.64 -42.3,-51.05 -55.95,-82.3 -13.65,-31.23 -20.46,-64.7 -20.46,-100.48l0 -371.93 69.11 0 0 371.93c0,25.47 5.01,49.71 15.06,72.75 9.99,23.03 23.46,43.21 40.4,60.46 16.97,17.29 36.83,30.94 59.55,40.93 22.75,10.01 47.16,15.02 73.27,15.02l304.59 0c25.4,0 49.7,-5.01 72.74,-15.02 23.04,-9.99 43.18,-23.46 60.46,-40.47 17.29,-16.97 30.94,-36.79 40.93,-59.55 9.98,-22.75 14.99,-46.81 14.99,-72.32l0 -373.73 69.11 0 0 371.93c0,35.78 -6.81,69.25 -20.46,100.48 -13.65,31.25 -32.28,58.66 -55.88,82.3 -23.04,23.03 -50.17,41.38 -81.46,55.03 -31.15,13.62 -64.7,20.46 -100.43,20.46l-302.86 0c-36.38,0 -70.14,-6.84 -101.39,-20.46 -31.15,-13.65 -58.28,-32 -81.32,-55.03z"/>
   <polygon class="fil1" points="14073.64,3453.23 14142.78,3453.23 14142.78,4083.43 14073.64,4083.43 "/>
   <path class="fil1" d="M15141.27 3709.67c0,-25.51 -5.01,-49.57 -14.99,-72.32 -9.95,-22.68 -23.61,-42.58 -40.93,-59.55 -17.28,-16.97 -37.43,-30.48 -60.46,-40.46 -23,-10.02 -47.31,-15.03 -72.75,-15.03l-548.35 0 0 491.98 550.15 0c25.47,0 49.6,-4.97 72.29,-15.03 22.79,-9.94 42.58,-23.6 59.58,-40.88 16.93,-17.25 30.52,-37.29 40.47,-60.01 9.98,-22.75 14.99,-47.13 14.99,-73.2l0 -115.5zm-806.63 -256.47l617.5 0c35.74,0 69.29,6.84 100.44,20.5 31.29,13.61 58.56,32.24 81.88,55.91 23.35,23.64 41.8,51.05 55.46,82.3 13.65,31.22 20.46,64.42 20.46,99.56l0 113.7c0,35.77 -6.81,69.25 -20.46,100.47 -13.66,31.22 -32.28,58.49 -55.88,81.84 -23.64,23.32 -51.09,41.84 -82.34,55.5 -31.22,13.61 -64.38,20.42 -99.56,20.42l-617.5 0 0 -630.2z"/>
   <path class="fil1" d="M15454.08 3711.46l0 113.7c0,26.07 5.01,50.45 15.07,73.2 9.98,22.72 23.6,42.76 40.92,60.01 17.18,17.29 37.25,30.94 59.94,40.92 22.82,10.02 47.16,15 73.2,15l467.43 0c26.14,0 50.66,-4.98 73.69,-15 23.07,-9.98 43.18,-23.63 60.47,-40.92 17.29,-17.25 30.94,-37.29 40.92,-60.01 9.99,-22.75 14.99,-47.13 14.99,-73.2l0 -113.7c0,-26.03 -5,-50.45 -14.99,-73.2 -9.98,-22.72 -23.63,-42.76 -40.92,-60.01 -17.29,-17.28 -37.4,-30.94 -60.47,-40.92 -23.03,-10.02 -47.55,-14.99 -73.69,-14.99l-467.43 0c-26.04,0 -50.38,4.97 -73.2,14.99 -22.69,9.98 -42.76,23.64 -59.94,40.92 -17.32,17.25 -30.94,37.29 -40.92,60.01 -10.06,22.75 -15.07,47.17 -15.07,73.2zm189.13 371.93c-35.74,0 -69.22,-6.8 -100.47,-20.42 -31.19,-13.65 -58.49,-32.17 -81.85,-55.49 -23.28,-23.36 -41.84,-50.59 -55.45,-81.85 -13.66,-31.22 -20.47,-64.7 -20.47,-100.47l0 -113.7c0,-35.14 6.81,-68.47 20.47,-100.01 13.61,-31.54 32.17,-58.95 55.45,-82.3 23.36,-23.32 50.66,-41.84 81.85,-55.46 31.25,-13.65 64.73,-20.46 100.47,-20.46l467.43 0c35.77,0 69.46,6.81 101,20.46 31.5,13.62 58.98,32.14 82.27,55.46 23.35,23.35 41.8,50.76 55.45,82.3 13.66,31.54 20.46,64.87 20.46,100.01l0 113.7c0,35.77 -6.8,69.25 -20.46,100.47 -13.65,31.26 -32.1,58.49 -55.45,81.85 -23.29,23.32 -50.77,41.84 -82.27,55.49 -31.54,13.62 -65.23,20.42 -101,20.42l-467.43 0z"/>
   <path class="fil1" d="M16588.97 3769.68l591.1 0c16.97,0 33.37,-3.21 49.07,-9.56 15.84,-6.35 29.6,-15.13 41.42,-26.38 11.82,-11.15 21.41,-24.24 28.64,-39.06 7.31,-14.85 10.94,-31.08 10.94,-48.68 0,-17.57 -3.63,-33.94 -10.94,-49.11 -7.23,-15.13 -17.18,-28.18 -29.52,-39.08 -12.42,-10.94 -26.71,-19.55 -42.76,-25.93 -16.05,-6.35 -32.88,-9.56 -50.52,-9.56l-587.43 0 0 247.36zm729.35 12.74c-30.37,29.1 -67.27,46.99 -110.98,53.62l184.68 247.37 -86.43 0 -182.81 -244.62 -533.81 0 0 244.62 -69.11 0 0 -630.2 656.54 0c20.64,0 40.54,2.75 59.59,8.18 19.12,5.47 36.58,13.37 52.28,23.64 27.3,17.6 49.28,40.5 65.97,68.65 16.65,28.18 25.04,58.98 25.04,92.32 0,26.7 -5.32,51.68 -15.98,75.04 -10.58,23.31 -25.57,43.78 -44.98,61.38z"/>
   <path class="fil1" d="M18296.76 3741.49l0 -31.82c0,-25.51 -5.01,-49.57 -14.96,-72.32 -10.06,-22.69 -23.71,-42.58 -40.92,-59.55 -17.29,-16.97 -37.47,-30.48 -60.47,-40.47 -23.04,-10.02 -47.34,-14.99 -72.78,-14.99l-309.17 0c-25.54,0 -49.53,4.97 -72.36,14.99 -22.68,9.99 -42.58,23.64 -59.55,40.93 -16.96,17.25 -30.44,37.28 -40.42,60 -10.06,22.76 -15.07,47.17 -15.07,73.2l0 30.03 685.7 0zm-6.32 -212.8c23.07,23.67 41.35,51.08 55,82.3 13.65,31.22 20.46,64.7 20.46,100.47l0 371.94 -69.14 0 0 -272.81 -685.7 0 0 272.81 -69.11 0 0 -371.94c0,-35.77 6.85,-69.25 20.5,-100.47 13.62,-31.22 32.28,-58.49 55.95,-81.84 23.6,-23.32 51.08,-41.84 82.27,-55.46 31.25,-13.65 64.45,-20.46 99.55,-20.46l307.41 0c35.74,0 69.29,6.81 100.47,20.46 31.19,13.62 58.64,31.96 82.34,55z"/>
   <path class="fil2" d="M2415.53 0.36l-0.83 0c-244.67,0 -489.25,134.19 -598.47,402.59l-626.75 1564.78 1620.44 0c287.09,0 546.81,-175.79 653.59,-442.28l449.58 -1122.5c108.83,-267.58 240.35,-401.78 484.33,-402.56l-1979.44 0 -2.45 -0.03z"/>
   <path class="fil3" d="M-7.07 4854.43l1632.9 0c287.44,0 547.83,-175.01 656.31,-441.11l459.34 -1126.64c137.51,-383.01 218.58,-556.08 492.97,-556.33l-1891.48 0.04c-2.85,-0.04 -5.75,-0.04 -8.6,-0.04 -274.54,-0.03 -552.14,172.97 -689.76,556.33l-651.68 1567.75z"/>
   <path class="fil4" d="M3235.09 2730.35l-0.46 0 -1891.73 0.04c166.44,2.15 331.26,67.87 462.6,188.67l1807.66 1761.1c475.33,451.83 1126.98,-33.8 923.43,-533.97l-281.34 -692.32 -549.03 -534.81c-133.56,-122.88 -301.76,-188.71 -471.13,-188.71z"/>
   <path class="fil5" d="M4399.57 0.39l-0.13 0 -0.13 0 -0.14 0 -0.13 0 -0.14 0 -0.13 0 -0.14 0 -0.13 0 -0.14 0 -0.13 0 -0.14 0 -0.13 0 -0.14 0 -0.13 0 -0.14 0 -0.13 0 -1979.44 0c243.6,1.17 486.66,135.36 595.35,402.56l1523.26 3743.24c145.77,358.21 -147.07,708.98 -499.67,713.25l1985.32 -0.04c352.36,-4.62 644.88,-355.21 499.11,-713.21l-1523.22 -3743.24c-109.19,-268.36 -353.87,-402.56 -598.56,-402.56zm-375.78 4859.05c4.38,0.07 8.79,0.07 13.13,0l-13.13 0z"/>
  </g>
 </g>
</svg>
