<?xml version="1.0" encoding="UTF-8"?>
<!DOCTYPE svg PUBLIC "-//W3C//DTD SVG 1.1//EN" "http://www.w3.org/Graphics/SVG/1.1/DTD/svg11.dtd">
<!-- Creator: CorelDRAW 2021 (64 Bit) -->
<svg xmlns="http://www.w3.org/2000/svg" xml:space="preserve" width="109.786mm" height="97.3455mm" version="1.1" style="shape-rendering:geometricPrecision; text-rendering:geometricPrecision; image-rendering:optimizeQuality; fill-rule:evenodd; clip-rule:evenodd"
viewBox="0 0 10964.34 9721.9"
 xmlns:xlink="http://www.w3.org/1999/xlink"
 xmlns:xodm="http://www.corel.com/coreldraw/odm/2003">
 <defs>
  <style type="text/css">
   <![CDATA[
    .fil1 {fill:#E31430;fill-rule:nonzero}
    .fil0 {fill:#F3F2EE;fill-rule:nonzero}
   ]]>
  </style>
 </defs>
 <g id="Camada_x0020_1">
  <metadata id="CorelCorpID_0Corel-Layer"/>
  <g id="_2202368042800">
   <path class="fil0" d="M7374.04 2747.36c290.47,-194.56 683.73,-116.79 878.29,173.68 194.56,290.46 116.79,683.72 -173.67,878.28 -374.43,251.42 -789.16,450.06 -1233.15,585 -432.97,131.61 -886.77,202.39 -1350.73,202.39 -471.69,0 -931.08,-72.36 -1367.32,-206.68 -449.06,-138.28 -868.23,-341.98 -1246.04,-599.73 -289.09,-197.3 -363.51,-591.68 -166.2,-880.77 197.3,-289.09 591.68,-363.51 880.77,-166.2 275.78,188.13 579.82,336.27 903.61,435.96 310.54,95.63 644.6,147.13 995.17,147.13 347.91,0 677.96,-49.97 983.51,-142.83 320.19,-97.3 621.51,-242.06 895.76,-426.22z"/>
   <polygon class="fil1" points="217.28,9721.9 1996.01,9721.9 1996.01,3082.2 217.28,3082.2 "/>
   <path class="fil1" d="M2685.02 9721.9l5512.7 0 0 -1466.44 -3136.54 0 -13.54 -27.12 3202.7 -3902.55c-388.86,244.64 -809.32,436.74 -1249.26,570.46 -488.42,148.47 -995.7,225.51 -1506.32,225.51l-53.04 -0.27 -2756.7 3378.38 0 1222.04z"/>
   <polygon class="fil1" points="8927.62,9721.9 10706.35,9721.9 10706.35,3082.2 8927.62,3082.2 "/>
   <g>
    <path class="fil0" d="M1127 2186.05c638.15,0 1126.99,-488.79 1126.99,-1099.82 0,-597.44 -488.84,-1086.24 -1126.99,-1086.24 -651.74,0 -1127,488.79 -1127,1086.24 0,611.02 475.26,1099.82 1127,1099.82z"/>
    <path class="fil0" d="M9837.34 2186.05c638.15,0 1127,-488.79 1127,-1099.82 0,-597.44 -488.85,-1086.24 -1127,-1086.24 -651.73,0 -1126.99,488.79 -1126.99,1086.24 0,611.02 475.26,1099.82 1126.99,1099.82z"/>
   </g>
  </g>
 </g>
</svg>
